<svg width="22" height="20" viewBox="0 0 22 20" fill="none" xmlns="http://www.w3.org/2000/svg">
<path d="M11.0012 10.9188C10.8964 10.9189 10.7929 10.8962 10.6978 10.8523L0.421975 6.11819C0.296018 6.06018 0.189325 5.96727 0.114537 5.85046C0.0397487 5.73366 0 5.59786 0 5.45916C0 5.32045 0.0397487 5.18466 0.114537 5.06785C0.189325 4.95105 0.296018 4.85814 0.421975 4.80013L10.6978 0.065981C10.7926 0.0225054 10.8957 0 11 0C11.1043 0 11.2074 0.0225054 11.3022 0.065981L21.578 4.80013C21.704 4.85814 21.8107 4.95105 21.8855 5.06785C21.9603 5.18466 22 5.32045 22 5.45916C22 5.59786 21.9603 5.73366 21.8855 5.85046C21.8107 5.96727 21.704 6.06018 21.578 6.11819L11.3022 10.8523C11.2078 10.8958 11.1052 10.9185 11.0012 10.9188ZM20.9143 13.4969L11.0012 18.0642L1.08809 13.4969V15.0943L10.6978 19.5225C10.7926 19.566 10.8957 19.5885 11 19.5885C11.1043 19.5885 11.2074 19.566 11.3022 19.5225L20.9143 15.0943V13.4969Z" fill="white" fill-opacity="0.85"/>
<path d="M20.9144 9.15704L11.0013 13.7255L1.08813 9.15704V10.7617L10.6978 15.1887C10.7926 15.2322 10.8957 15.2547 11 15.2547C11.1044 15.2547 11.2074 15.2322 11.3023 15.1887L20.9144 10.7617V9.15704Z" fill="white" fill-opacity="0.85"/>
</svg>
