<svg width="20" height="24" viewBox="0 0 20 24" fill="none" xmlns="http://www.w3.org/2000/svg">
<path d="M10 23.9999C9.37379 24.0061 8.77044 23.7701 8.32134 23.3433C6.25899 21.3734 4.6283 19.5677 3.30935 17.8089C1.10312 14.8072 0 12.1104 0 9.76532C0.00321426 7.51063 0.803065 5.3263 2.26414 3.58211C3.72522 1.83792 5.75775 0.641034 8.01765 0.19408C10.2776 -0.252875 12.626 0.0775617 14.6653 1.12945C16.7047 2.18134 18.3097 3.89005 19.2086 5.96631C19.7309 7.16773 20.0001 8.45983 20 9.76532C20 12.1573 18.8729 14.8541 16.6906 17.8324C15.012 20.1071 13.0216 22.0535 11.6787 23.3433C11.2296 23.7701 10.6262 24.0061 10 23.9999ZM10 1.86244C5.53957 1.86244 1.91847 5.40349 1.91847 9.76532C1.91847 11.9931 3.26139 15.9094 9.66427 21.9831C9.75392 22.0691 9.87446 22.1172 10 22.1172C10.1255 22.1172 10.2461 22.0691 10.3357 21.9831C11.6307 20.7637 13.5252 18.8876 15.1319 16.7302C17.0983 14.0802 18.0815 11.7586 18.0815 9.76532C18.0815 5.40349 14.4604 1.86244 10 1.86244Z" fill="currentColor" fill-opacity="0.8"/>
<path d="M10 16.1205C8.50849 16.1173 7.06415 15.6089 5.91282 14.6816C4.7615 13.7544 3.97433 12.4656 3.68528 11.0347C3.39624 9.60378 3.62319 8.11914 4.32751 6.83343C5.03182 5.54773 6.16998 4.54042 7.54827 3.98295C8.92656 3.42547 10.4598 3.35228 11.8871 3.77582C13.3143 4.19937 14.5474 5.09348 15.3764 6.30599C16.2055 7.51849 16.5792 8.97446 16.4341 10.4261C16.2889 11.8777 15.6339 13.2353 14.5804 14.2678C13.9803 14.8578 13.2664 15.3253 12.4802 15.6433C11.6939 15.9613 10.8509 16.1235 10 16.1205ZM10 5.35659C7.50602 5.35659 5.46765 7.3499 5.46765 9.81222C5.46765 12.2745 7.50602 14.2678 10.024 14.2678C12.542 14.2678 14.5804 12.2745 14.5804 9.83567C14.5804 7.3968 12.494 5.35659 10 5.35659Z" fill="currentColor" fill-opacity="0.8"/>
</svg>
