<svg width="32" height="32" viewBox="0 0 32 32" fill="none" xmlns="http://www.w3.org/2000/svg">
<g id="date-switch 2">
<g id="Group 48097687">
<path id="Vector" d="M18.6541 24.8204H6.70556C6.20362 24.8204 5.79963 24.4164 5.79963 23.9144V14.9163H23.8081V16.3487C23.8081 16.8506 24.2121 17.2546 24.7141 17.2546C25.216 17.2546 25.62 16.8506 25.62 16.3487V9.51743C25.62 8.02386 24.408 6.81187 22.9144 6.81187H21.1026V5.90593C21.1026 5.404 20.6986 5 20.1966 5C19.6947 5 19.2907 5.404 19.2907 5.90593V6.81187H10.3048V5.90593C10.3048 5.404 9.90081 5 9.39888 5C8.89694 5 8.49294 5.404 8.49294 5.90593V6.81187H6.70556C5.21199 6.81187 4 8.02386 4 9.51743V23.9144C4 25.408 5.21199 26.62 6.70556 26.62H18.6541C19.156 26.62 19.56 26.216 19.56 25.7141C19.56 25.2121 19.1438 24.8204 18.6541 24.8204ZM6.70556 8.62374H8.50518V10.4234C8.50518 10.9253 8.90918 11.3293 9.41112 11.3293C9.91305 11.3293 10.3171 10.9253 10.3171 10.4234V8.62374H19.3152V10.4234C19.3152 10.9253 19.7192 11.3293 20.2211 11.3293C20.7231 11.3293 21.127 10.9253 21.127 10.4234V8.62374H22.9267C23.4286 8.62374 23.8326 9.02773 23.8326 9.52967V13.1289H5.79963V9.51743C5.79963 9.02773 6.20362 8.62374 6.70556 8.62374Z" fill="#B2D3FC" fill-opacity="0.7" stroke="#89A8CF" stroke-width="0.4"/>
<path id="Vector_2" d="M23.9673 19.0297C24.3223 18.6747 24.3223 18.1115 23.9673 17.7565C23.6122 17.4015 23.0491 17.4015 22.6941 17.7565L20.4782 19.9846C20.2211 20.2417 20.1477 20.6335 20.2823 20.964C20.417 21.2945 20.7475 21.5149 21.1148 21.5149H27.1013C27.6032 21.5149 27.995 21.1109 27.995 20.609C27.995 20.107 27.591 19.7153 27.0891 19.7153H23.2694L23.9673 19.0297ZM27.0891 22.4086L21.1026 22.4208C20.6006 22.4208 20.2089 22.8248 20.2089 23.3268C20.2089 23.8287 20.6129 24.2205 21.1148 24.2205H24.9344L24.2488 24.9183C23.8938 25.2733 23.8938 25.8365 24.2488 26.1915C24.4202 26.3629 24.6528 26.4486 24.8854 26.4486C25.118 26.4486 25.3506 26.3629 25.522 26.1792L27.7379 23.9511C27.995 23.694 28.0685 23.3023 27.9338 22.9717C27.7991 22.6412 27.4563 22.4086 27.0891 22.4086Z" fill="#B2D3FC" fill-opacity="0.7" stroke="#89A8CF" stroke-width="0.4"/>
</g>
</g>
</svg>
