<svg width="25" height="26" viewBox="0 0 25 26" fill="none" xmlns="http://www.w3.org/2000/svg">
<path d="M19.8609 19.198L20.3535 24.0705C22.2277 24.1687 23.3802 24.3034 23.3802 24.4513C23.3802 24.7464 18.7978 24.9869 13.0498 25H12.0865C6.33901 24.9869 1.75606 24.7464 1.75606 24.4513C1.75606 24.148 6.59701 23.902 12.5681 23.902H12.8098C15.0571 23.9047 17.1364 23.9424 18.8447 24.004L19.3302 19.1985H19.8609V19.198ZM10.406 13.469L11.487 23.902H8.24321L9.32485 13.469H10.406ZM18.6598 18.0852C18.6164 18.2757 18.6466 18.4755 18.7442 18.6447C18.8417 18.8139 18.9996 18.94 19.1862 18.9978L15.6958 20.7258C15.5849 20.7806 15.4581 20.7943 15.338 20.7645C15.314 20.7586 15.2915 20.7479 15.2717 20.733C15.252 20.7182 15.2354 20.6995 15.223 20.6781C15.2107 20.6567 15.2027 20.6331 15.1997 20.6086C15.1967 20.584 15.1986 20.5592 15.2054 20.5354C15.2397 20.4164 15.3151 20.3134 15.4182 20.2447L18.6598 18.0847V18.0852ZM20.5318 18.0852L23.7735 20.2441C23.8766 20.3128 23.9519 20.4159 23.9862 20.5349C23.9997 20.5817 23.9941 20.6319 23.9706 20.6746C23.947 20.7172 23.9076 20.7488 23.8608 20.7623L23.8537 20.7645C23.7335 20.7941 23.6068 20.7802 23.4959 20.7252L20.0049 18.9978C20.1915 18.9401 20.3494 18.8141 20.4471 18.645C20.5448 18.4759 20.5751 18.2762 20.5318 18.0858V18.0852ZM19.5958 17.2627C20.0355 17.2627 20.3922 17.6341 20.3922 18.0918C20.3922 18.5499 20.0355 18.9214 19.5958 18.9214C19.1562 18.9214 18.7995 18.5505 18.7995 18.0923C18.7995 17.6341 19.1562 17.2632 19.5958 17.2632V17.2627ZM19.5958 17.8158C19.5602 17.8165 19.5251 17.8242 19.4925 17.8385C19.4599 17.8528 19.4304 17.8733 19.4057 17.899C19.3811 17.9247 19.3617 17.955 19.3487 17.9881C19.3358 18.0213 19.3295 18.0567 19.3302 18.0923C19.3302 18.245 19.4491 18.3689 19.5958 18.3689C19.6676 18.3673 19.7359 18.3373 19.7856 18.2854C19.8353 18.2336 19.8624 18.1641 19.8609 18.0923C19.8624 18.0205 19.8353 17.951 19.7856 17.8992C19.7359 17.8473 19.6676 17.8173 19.5958 17.8158ZM19.7229 12.9721C19.8117 13.062 19.865 13.1809 19.8729 13.307L20.1228 17.1939C19.9795 17.0609 19.7913 16.9868 19.5958 16.9867C19.394 16.9867 19.2097 17.0647 19.0695 17.1934L19.3182 13.3065C19.3261 13.1829 19.3775 13.0662 19.4633 12.977C19.497 12.9419 19.5433 12.9216 19.592 12.9206C19.6407 12.9195 19.6878 12.9379 19.7229 12.9715V12.9721ZM7.86466 11.2375C7.78235 11.6247 7.84633 12.0286 8.04425 12.3714C8.24218 12.7141 8.56003 12.9715 8.93648 13.0937L2.00261 16.5127C1.77973 16.6225 1.52478 16.6487 1.28424 16.5863C1.23553 16.5737 1.1898 16.5515 1.14974 16.5211C1.10968 16.4907 1.07608 16.4526 1.05089 16.409C1.02571 16.3654 1.00945 16.3173 1.00307 16.2674C0.99668 16.2175 1.00029 16.1668 1.01369 16.1183C1.07992 15.8786 1.23015 15.6706 1.43697 15.5325L7.86466 11.237V11.2375ZM11.8667 11.237L18.2944 15.5319C18.5012 15.6701 18.6514 15.878 18.7177 16.1177C18.7311 16.1662 18.7347 16.2169 18.7283 16.2668C18.7219 16.3167 18.7056 16.3649 18.6805 16.4084C18.6553 16.452 18.6217 16.4901 18.5816 16.5206C18.5415 16.551 18.4958 16.5732 18.4471 16.5858C18.2066 16.6481 17.9516 16.622 17.7287 16.5121L10.7949 13.0932C11.1713 12.9709 11.4892 12.7136 11.6871 12.3708C11.885 12.0281 11.949 11.6241 11.8667 11.237ZM9.86485 9.62515C10.761 9.62515 11.487 10.3626 11.487 11.2724C11.487 12.1823 10.761 12.9197 9.8654 12.9197C8.96976 12.9197 8.24321 12.1823 8.24321 11.2724C8.24321 10.3626 8.96976 9.62515 9.8654 9.62515H9.86485ZM9.86485 10.7237C9.72052 10.725 9.5826 10.7835 9.48136 10.8864C9.38012 10.9893 9.32383 11.1281 9.32485 11.2724C9.32369 11.4169 9.37991 11.5558 9.48117 11.6588C9.58242 11.7618 9.72043 11.8204 9.86485 11.8217C10.1638 11.8217 10.406 11.5763 10.406 11.2724C10.407 11.128 10.3506 10.9891 10.2492 10.8862C10.1479 10.7833 10.0098 10.7249 9.8654 10.7237H9.86485ZM10.1316 1.10999L10.1354 1.11381C10.3099 1.29104 10.4148 1.5251 10.431 1.77327L10.9372 9.48769C10.6431 9.22275 10.2613 9.07614 9.8654 9.07614C9.46954 9.07614 9.0877 9.22275 8.79357 9.48769L9.29921 1.77327C9.31546 1.52483 9.4206 1.29055 9.5954 1.11326C9.63036 1.07772 9.67199 1.04942 9.7179 1.02998C9.76382 1.01055 9.81311 1.00036 9.86297 1.00001C9.91283 0.999655 9.96226 1.00914 10.0085 1.02792C10.0546 1.0467 10.0967 1.0744 10.1321 1.10944L10.1316 1.10999Z" fill="url(#paint0_linear_1024_4893)" stroke="url(#paint1_linear_1024_4893)" stroke-width="0.2"/>
<defs>
<linearGradient id="paint0_linear_1024_4893" x1="12.4967" y1="1" x2="12.4967" y2="25" gradientUnits="userSpaceOnUse">
<stop stop-color="white"/>
<stop offset="1" stop-color="#66E1DF"/>
</linearGradient>
<linearGradient id="paint1_linear_1024_4893" x1="12.4967" y1="1" x2="12.4967" y2="25" gradientUnits="userSpaceOnUse">
<stop stop-color="white"/>
<stop offset="1" stop-color="#66E1DF"/>
</linearGradient>
</defs>
</svg>
