<svg width="22" height="15" viewBox="0 0 22 15" fill="none" xmlns="http://www.w3.org/2000/svg">
<path d="M8.48711 2.50311C8.48711 2.15111 8.5523 1.82519 8.68267 1.52533C8.81304 1.22548 8.9923 0.961482 9.22044 0.733333C9.44859 0.505185 9.71259 0.325926 10.0124 0.195556C10.3123 0.0651851 10.6382 0 10.9902 0C11.3292 0 11.6486 0.0651851 11.9484 0.195556C12.2483 0.325926 12.5123 0.505185 12.7404 0.733333C12.9686 0.961482 13.1479 1.22548 13.2782 1.52533C13.4086 1.82519 13.4738 2.15111 13.4738 2.50311C13.4738 2.84207 13.4086 3.16474 13.2782 3.47111C13.1479 3.77748 12.9686 4.04148 12.7404 4.26311C12.5123 4.48474 12.2483 4.66074 11.9484 4.79111C11.6486 4.92148 11.3292 4.98667 10.9902 4.98667H10.7556C10.6904 4.98667 10.6252 4.97363 10.56 4.94756H1.232V2.50311H8.48711ZM13.5129 9.89511C13.8519 9.89511 14.168 9.95704 14.4613 10.0809C14.7547 10.2047 15.0121 10.3775 15.2338 10.5991C15.4554 10.8207 15.6281 11.0782 15.752 11.3716C15.8759 11.6649 15.9378 11.981 15.9378 12.32C15.9378 12.659 15.8759 12.9751 15.752 13.2684C15.6281 13.5618 15.4554 13.816 15.2338 14.0311C15.0121 14.2462 14.7547 14.419 14.4613 14.5493C14.168 14.6797 13.8519 14.7449 13.5129 14.7449C13.1739 14.7449 12.8578 14.6797 12.5644 14.5493C12.2711 14.419 12.0169 14.2462 11.8018 14.0311C11.5867 13.816 11.4139 13.5618 11.2836 13.2684C11.1532 12.9751 11.088 12.659 11.088 12.32V12.3004H0V9.856H13.4738V9.89511H13.5129ZM18.9493 2.48356C19.3665 2.48356 19.7609 2.56504 20.1324 2.728C20.504 2.89096 20.8267 3.11259 21.1004 3.39289C21.3742 3.67319 21.5926 3.99911 21.7556 4.37067C21.9185 4.74222 22 5.13659 22 5.55378C22 5.984 21.9185 6.38489 21.7556 6.75644C21.5926 7.128 21.3742 7.45067 21.1004 7.72444C20.8267 7.99822 20.504 8.21659 20.1324 8.37955C19.7609 8.54252 19.3665 8.624 18.9493 8.624H18.9102H0V6.17956H15.9378C15.8987 5.984 15.8791 5.77541 15.8791 5.55378C15.8791 5.13659 15.9606 4.74222 16.1236 4.37067C16.2865 3.99911 16.5049 3.67319 16.7787 3.39289C17.0524 3.11259 17.3751 2.89096 17.7467 2.728C18.1182 2.56504 18.5191 2.48356 18.9493 2.48356Z" fill="url(#paint0_linear_1024_4859)"/>
<defs>
<linearGradient id="paint0_linear_1024_4859" x1="11" y1="0" x2="11" y2="14.7449" gradientUnits="userSpaceOnUse">
<stop stop-color="white"/>
<stop offset="1" stop-color="#66E1DF"/>
</linearGradient>
</defs>
</svg>
