<svg width="22" height="20" viewBox="0 0 22 20" fill="none" xmlns="http://www.w3.org/2000/svg">
<path d="M0.859087 15.4636C0.630816 15.4636 0.414816 15.5544 0.252817 15.7164C0.0932724 15.8784 0.0024545 16.0968 0.0024545 16.3227C0.0024545 16.7988 0.385362 17.1842 0.856633 17.1842H7.45688C7.1157 16.6417 6.83097 16.0674 6.61252 15.466L0.859087 15.4636ZM0.859087 1.72063H19.0963C19.57 1.72063 19.9505 1.33527 19.9505 0.861542C19.9505 0.63327 19.8621 0.414816 19.7026 0.252817C19.543 0.0908179 19.3246 0 19.0963 0H0.859087C0.397635 0.0196363 0.031909 0.397635 0.031909 0.859087C0.0343636 1.32299 0.397635 1.70345 0.859087 1.72063ZM0.859087 12.0272H6.05534C6.07252 11.4504 6.14125 10.8736 6.26397 10.309H0.859087C0.385362 10.309 0 10.6944 0 11.1681C0 11.6443 0.385362 12.0272 0.859087 12.0272ZM9.48923 5.15698H0.859087C0.630816 5.15698 0.412362 5.2478 0.252817 5.4098C0.0932724 5.57179 0.00245446 5.79025 0.004909 6.01852C0.004909 6.4947 0.387817 6.88006 0.859087 6.88006H7.83242C8.31106 6.23206 8.86578 5.65525 9.48923 5.15698ZM15.0954 5.35089C11.286 5.35089 8.19078 8.46815 8.19078 12.2997C8.19078 16.1312 11.2884 19.2485 15.0954 19.2485C18.9048 19.2485 22 16.1312 22 12.2997C22.0025 8.4706 18.9024 5.35089 15.0954 5.35089ZM17.1032 13.7503H14.5259C14.0964 13.7503 13.7528 13.4042 13.7528 12.9771V10.3999C13.7528 9.97278 14.0988 9.62669 14.5259 9.62669C14.953 9.62669 15.2991 9.97278 15.2991 10.3999V12.2039H17.1032C17.5303 12.2039 17.8764 12.55 17.8764 12.9771C17.8764 13.4018 17.5303 13.7503 17.1032 13.7503Z" fill="white" fill-opacity="0.8"/>
</svg>
