<svg width="22" height="22" viewBox="0 0 22 22" fill="none" xmlns="http://www.w3.org/2000/svg">
<path d="M5.05756 20.2244L4.28515 20.9981C4.08897 21.1948 3.8559 21.3508 3.59931 21.4573C3.34272 21.5638 3.06763 21.6186 2.78982 21.6186C2.51201 21.6186 2.23693 21.5638 1.98034 21.4573C1.72374 21.3508 1.49068 21.1948 1.2945 20.9981L0.996291 20.7035C0.599769 20.3054 0.377138 19.7664 0.377138 19.2045C0.377138 18.6427 0.599769 18.1037 0.996291 17.7056L1.7687 16.9319C0.393045 14.789 -0.208424 12.24 0.0641269 9.70814C0.336678 7.17627 1.46686 4.81372 3.26708 3.01265L10.5524 10.3151L12.7059 8.15675C12.5679 7.76664 12.5667 7.3412 12.7025 6.95033C12.8383 6.55945 13.103 6.22638 13.4531 6.00583C13.8032 5.78528 14.218 5.69038 14.6291 5.7367C15.0403 5.78303 15.4235 5.96783 15.7158 6.26074C16.0081 6.55366 16.192 6.93728 16.2375 7.34857C16.2829 7.75986 16.1871 8.17437 15.9657 8.52401C15.7444 8.87364 15.4108 9.1376 15.0196 9.27253C14.6284 9.40745 14.203 9.40532 13.8132 9.26648L11.6585 11.4248L18.9463 18.7273C17.1534 20.5307 14.7954 21.6635 12.2671 21.9361C9.73879 22.2086 7.19357 21.6044 5.05756 20.2244ZM20.5547 7.84266C20.5563 6.11132 19.8701 4.45022 18.6472 3.22472C17.4242 1.99922 15.7645 1.30966 14.0332 1.30772V0C16.1102 0.00356281 18.1008 0.831647 19.5675 2.30225C21.0342 3.77286 21.857 5.76566 21.855 7.84266H20.5547ZM17.9453 7.84266C17.9466 6.804 17.5353 5.80735 16.8019 5.07188C16.0685 4.33641 15.073 3.92234 14.0344 3.92072V2.74499C15.3849 2.74661 16.6794 3.28456 17.6333 4.24052C18.5872 5.19648 19.1223 6.49218 19.1211 7.84266H17.9453Z" fill="url(#paint0_linear_1024_4907)"/>
<defs>
<linearGradient id="paint0_linear_1024_4907" x1="10.9275" y1="0" x2="10.9275" y2="22" gradientUnits="userSpaceOnUse">
<stop stop-color="white"/>
<stop offset="1" stop-color="#66E1DF"/>
</linearGradient>
</defs>
</svg>
