<svg width="19" height="24" viewBox="0 0 19 24" fill="none" xmlns="http://www.w3.org/2000/svg">
<path d="M4.11667 13.6977L4.66667 13.2577V4.66667C4.66667 4.37776 4.72357 4.09168 4.83413 3.82476C4.94469 3.55785 5.10674 3.31532 5.31103 3.11103C5.51532 2.90674 5.75785 2.74469 6.02476 2.63413C6.29168 2.52357 6.57776 2.46667 6.86667 2.46667C7.15558 2.46667 7.44165 2.52357 7.70857 2.63413C7.97549 2.74469 8.21801 2.90674 8.4223 3.11103C8.62659 3.31532 8.78864 3.55785 8.8992 3.82476C9.00976 4.09168 9.06667 4.37776 9.06667 4.66667V13.2577L9.61667 13.6977C10.3285 14.2673 10.8457 15.044 11.097 15.9204C11.3483 16.7968 11.3211 17.7295 11.0192 18.5898C10.7174 19.4501 10.1558 20.1953 9.41201 20.7226C8.66825 21.2498 7.77908 21.533 6.8674 21.533C5.95572 21.533 5.06655 21.2498 4.32279 20.7226C3.57903 20.1953 3.01741 19.4501 2.71556 18.5898C2.41372 17.7295 2.38654 16.7968 2.6378 15.9204C2.88905 15.044 3.40633 14.2673 4.11813 13.6977H4.11667ZM6.86667 1C5.89421 1 4.96158 1.38631 4.27394 2.07394C3.58631 2.76158 3.2 3.69421 3.2 4.66667V12.5537C2.25118 13.3133 1.56173 14.349 1.22694 15.5174C0.892146 16.6859 0.928541 17.9294 1.33109 19.0763C1.73365 20.2232 2.48248 21.2167 3.47411 21.9196C4.46574 22.6225 5.6512 23 6.86667 23C8.08214 23 9.2676 22.6225 10.2592 21.9196C11.2509 21.2167 11.9997 20.2232 12.4022 19.0763C12.8048 17.9294 12.8412 16.6859 12.5064 15.5174C12.1716 14.349 11.4822 13.3133 10.5333 12.5537V4.66667C10.5333 3.69421 10.147 2.76158 9.45939 2.07394C8.77176 1.38631 7.83913 1 6.86667 1ZM13.4667 5.4C13.4667 5.2074 13.5046 5.01668 13.5783 4.83873C13.652 4.66079 13.7601 4.4991 13.8962 4.36291C14.0324 4.22672 14.1941 4.11868 14.3721 4.04498C14.55 3.97127 14.7407 3.93333 14.9333 3.93333C15.1259 3.93333 15.3167 3.97127 15.4946 4.04498C15.6725 4.11868 15.8342 4.22672 15.9704 4.36291C16.1066 4.4991 16.2147 4.66079 16.2884 4.83873C16.3621 5.01668 16.4 5.2074 16.4 5.4C16.4 5.78898 16.2455 6.16204 15.9704 6.43709C15.6954 6.71214 15.3223 6.86667 14.9333 6.86667C14.5444 6.86667 14.1713 6.71214 13.8962 6.43709C13.6212 6.16204 13.4667 5.78898 13.4667 5.4ZM14.9333 2.46667C14.5481 2.46667 14.1667 2.54254 13.8108 2.68995C13.4549 2.83737 13.1315 3.05344 12.8592 3.32582C12.5868 3.59821 12.3707 3.92157 12.2233 4.27746C12.0759 4.63335 12 5.01479 12 5.4C12 5.78521 12.0759 6.16665 12.2233 6.52254C12.3707 6.87843 12.5868 7.2018 12.8592 7.47418C13.1315 7.74657 13.4549 7.96263 13.8108 8.11005C14.1667 8.25746 14.5481 8.33333 14.9333 8.33333C15.7113 8.33333 16.4574 8.02429 17.0075 7.47418C17.5576 6.92407 17.8667 6.17797 17.8667 5.4C17.8667 4.62203 17.5576 3.87593 17.0075 3.32582C16.4574 2.77571 15.7113 2.46667 14.9333 2.46667ZM8.33333 17.1333C8.33334 17.3908 8.26558 17.6437 8.13685 17.8667C8.00813 18.0896 7.82299 18.2748 7.60003 18.4035C7.37706 18.5323 7.12415 18.6 6.86669 18.6C6.60924 18.6 6.35631 18.5323 6.13335 18.4036C5.91039 18.2748 5.72523 18.0897 5.5965 17.8667C5.46777 17.6438 5.4 17.3908 5.4 17.1334C5.4 16.8759 5.46777 16.623 5.59649 16.4C5.72522 16.1771 5.91037 15.9919 6.13333 15.8632V9.8C6.13333 9.60551 6.2106 9.41898 6.34812 9.28146C6.48565 9.14393 6.67218 9.06667 6.86667 9.06667C7.06116 9.06667 7.24769 9.14393 7.38521 9.28146C7.52274 9.41898 7.6 9.60551 7.6 9.8V15.8632C7.82296 15.9919 8.0081 16.1771 8.13683 16.4C8.26556 16.623 8.33333 16.8759 8.33333 17.1333Z" fill="url(#paint0_linear_1024_4874)" stroke="url(#paint1_linear_1024_4874)" stroke-width="0.4"/>
<defs>
<linearGradient id="paint0_linear_1024_4874" x1="9.43333" y1="1" x2="9.43333" y2="23" gradientUnits="userSpaceOnUse">
<stop stop-color="white"/>
<stop offset="1" stop-color="#66E1DF"/>
</linearGradient>
<linearGradient id="paint1_linear_1024_4874" x1="9.43333" y1="1" x2="9.43333" y2="23" gradientUnits="userSpaceOnUse">
<stop stop-color="white"/>
<stop offset="1" stop-color="#66E1DF"/>
</linearGradient>
</defs>
</svg>
