<svg width="23" height="24" viewBox="0 0 23 24" fill="none" xmlns="http://www.w3.org/2000/svg">
<path d="M18.6783 6.49991C19.1992 6.49991 19.6988 6.29296 20.0672 5.92459C20.4356 5.55622 20.6425 5.05661 20.6425 4.53566C20.6425 4.0147 20.4356 3.51509 20.0672 3.14672C19.6988 2.77835 19.1992 2.5714 18.6783 2.5714C18.1573 2.5714 17.6577 2.77835 17.2893 3.14672C16.921 3.51509 16.714 4.0147 16.714 4.53566C16.714 5.05661 16.921 5.55622 17.2893 5.92459C17.6577 6.29296 18.1573 6.49991 18.6783 6.49991ZM3.3571 7.28561C3.46028 7.28561 3.56245 7.26529 3.65778 7.2258C3.7531 7.18632 3.83972 7.12844 3.91268 7.05548C3.98564 6.98253 4.04351 6.89591 4.083 6.80058C4.12248 6.70526 4.14281 6.60309 4.14281 6.49991C4.14281 6.39673 4.12248 6.29456 4.083 6.19923C4.04351 6.10391 3.98564 6.01729 3.91268 5.94433C3.83972 5.87138 3.7531 5.8135 3.65778 5.77402C3.56245 5.73453 3.46028 5.71421 3.3571 5.71421C3.14872 5.71421 2.94888 5.79699 2.80153 5.94433C2.65418 6.09168 2.5714 6.29153 2.5714 6.49991C2.5714 6.70829 2.65418 6.90814 2.80153 7.05548C2.94888 7.20283 3.14872 7.28561 3.3571 7.28561ZM22.2139 4.53566C22.2139 5.47337 21.8414 6.37268 21.1784 7.03574C20.5153 7.69881 19.616 8.07131 18.6783 8.07131C17.7406 8.07131 16.8413 7.69881 16.1782 7.03574C15.5151 6.37268 15.1426 5.47337 15.1426 4.53566C15.1426 3.59794 15.5151 2.69863 16.1782 2.03557C16.8413 1.37251 17.7406 1 18.6783 1C19.616 1 20.5153 1.37251 21.1784 2.03557C21.8414 2.69863 22.2139 3.59794 22.2139 4.53566ZM5.71421 6.49991C5.71421 7.12505 5.46587 7.72459 5.02383 8.16663C4.58179 8.60868 3.98225 8.85701 3.3571 8.85701C2.73196 8.85701 2.13242 8.60868 1.69038 8.16663C1.24834 7.72459 1 7.12505 1 6.49991C1 5.87477 1.24834 5.27523 1.69038 4.83319C2.13242 4.39114 2.73196 4.14281 3.3571 4.14281C3.98225 4.14281 4.58179 4.39114 5.02383 4.83319C5.46587 5.27523 5.71421 5.87477 5.71421 6.49991ZM11.2141 6.04892L15.6525 10.5376C18.1157 13.0291 18.1157 17.0762 15.6525 19.5669C15.0734 20.1563 14.3826 20.6244 13.6206 20.944C12.8585 21.2635 12.0405 21.4281 11.2141 21.4281C10.3878 21.4281 9.56973 21.2635 8.80768 20.944C8.04564 20.6244 7.35487 20.1563 6.77569 19.5669C4.31252 17.0762 4.31252 13.0299 6.77569 10.5376L11.2141 6.04892ZM16.7698 9.43293L11.7696 4.37537C11.6971 4.30168 11.6106 4.24316 11.5152 4.20321C11.4199 4.16326 11.3175 4.14269 11.2141 4.14269C11.1107 4.14269 11.0084 4.16326 10.913 4.20321C10.8176 4.24316 10.7312 4.30168 10.6586 4.37537L5.65842 9.43293C2.59026 12.5365 2.59026 17.5681 5.65842 20.6724C6.38374 21.4095 7.2485 21.995 8.20233 22.3946C9.15615 22.7942 10.18 23 11.2141 23C12.2483 23 13.2721 22.7942 14.2259 22.3946C15.1797 21.995 16.0445 21.4095 16.7698 20.6724C19.838 17.5689 19.838 12.5365 16.7698 9.43293ZM14.3569 15.1426C14.3569 14.9342 14.4397 14.7344 14.5871 14.587C14.7344 14.4397 14.9342 14.3569 15.1426 14.3569C15.351 14.3569 15.5509 14.4397 15.6982 14.587C15.8455 14.7344 15.9283 14.9342 15.9283 15.1426C15.9283 15.7617 15.8064 16.3747 15.5695 16.9467C15.3326 17.5186 14.9853 18.0383 14.5476 18.4761C14.1098 18.9138 13.5901 19.2611 13.0182 19.498C12.4462 19.7349 11.8332 19.8568 11.2141 19.8568C11.0057 19.8568 10.8059 19.7741 10.6585 19.6267C10.5112 19.4794 10.4284 19.2795 10.4284 19.0711C10.4284 18.8628 10.5112 18.6629 10.6585 18.5156C10.8059 18.3682 11.0057 18.2854 11.2141 18.2854C11.6268 18.2854 12.0355 18.2041 12.4168 18.0462C12.7981 17.8883 13.1446 17.6568 13.4364 17.3649C13.7283 17.0731 13.9598 16.7266 14.1177 16.3453C14.2756 15.964 14.3569 15.5553 14.3569 15.1426Z" fill="url(#paint0_linear_535_93)" stroke="url(#paint1_linear_535_93)" stroke-width="0.4"/>
<defs>
<linearGradient id="paint0_linear_535_93" x1="11.607" y1="1" x2="11.607" y2="23" gradientUnits="userSpaceOnUse">
<stop stop-color="white"/>
<stop offset="1" stop-color="#66E1DF"/>
</linearGradient>
<linearGradient id="paint1_linear_535_93" x1="11.607" y1="1" x2="11.607" y2="23" gradientUnits="userSpaceOnUse">
<stop stop-color="white"/>
<stop offset="1" stop-color="#66E1DF"/>
</linearGradient>
</defs>
</svg>
