<svg width="25" height="23" viewBox="0 0 25 23" fill="currentColor" xmlns="http://www.w3.org/2000/svg">
<path d="M3.81836 10.002H5.10742C5.73893 10.002 6.25977 9.89779 6.66992 9.68945C7.08659 9.47461 7.39583 9.1849 7.59766 8.82031C7.80599 8.44922 7.91016 8.03255 7.91016 7.57031C7.91016 7.02344 7.81901 6.56445 7.63672 6.19336C7.45443 5.82227 7.18099 5.54232 6.81641 5.35352C6.45182 5.16471 5.98958 5.07031 5.42969 5.07031C4.92188 5.07031 4.47266 5.17122 4.08203 5.37305C3.69792 5.56836 3.39518 5.84831 3.17383 6.21289C2.95898 6.57747 2.85156 7.00716 2.85156 7.50195H1.04492C1.04492 6.7793 1.22721 6.12174 1.5918 5.5293C1.95638 4.93685 2.46745 4.46484 3.125 4.11328C3.78906 3.76172 4.55729 3.58594 5.42969 3.58594C6.28906 3.58594 7.04102 3.73893 7.68555 4.04492C8.33008 4.3444 8.83138 4.79362 9.18945 5.39258C9.54753 5.98503 9.72656 6.72396 9.72656 7.60938C9.72656 7.96745 9.64193 8.35156 9.47266 8.76172C9.3099 9.16536 9.05273 9.54297 8.70117 9.89453C8.35612 10.2461 7.9069 10.5358 7.35352 10.7637C6.80013 10.985 6.13607 11.0957 5.36133 11.0957H3.81836V10.002ZM3.81836 11.4863V10.4023H5.36133C6.26628 10.4023 7.01497 10.5098 7.60742 10.7246C8.19987 10.9395 8.66536 11.2259 9.00391 11.584C9.34896 11.9421 9.58984 12.3359 9.72656 12.7656C9.86979 13.1888 9.94141 13.612 9.94141 14.0352C9.94141 14.6992 9.82747 15.2884 9.59961 15.8027C9.37826 16.3171 9.0625 16.7533 8.65234 17.1113C8.2487 17.4694 7.77344 17.7396 7.22656 17.9219C6.67969 18.1042 6.08398 18.1953 5.43945 18.1953C4.82096 18.1953 4.23828 18.1074 3.69141 17.9316C3.15104 17.7559 2.67253 17.502 2.25586 17.1699C1.83919 16.8314 1.51367 16.418 1.2793 15.9297C1.04492 15.4349 0.927734 14.8717 0.927734 14.2402H2.73438C2.73438 14.735 2.8418 15.168 3.05664 15.5391C3.27799 15.9102 3.59049 16.1999 3.99414 16.4082C4.4043 16.61 4.88607 16.7109 5.43945 16.7109C5.99284 16.7109 6.4681 16.6165 6.86523 16.4277C7.26888 16.2324 7.57812 15.9395 7.79297 15.5488C8.01432 15.1582 8.125 14.6667 8.125 14.0742C8.125 13.4818 8.0013 12.9967 7.75391 12.6191C7.50651 12.235 7.15495 11.9518 6.69922 11.7695C6.25 11.5807 5.7194 11.4863 5.10742 11.4863H3.81836ZM16.748 18H13.7793L13.7988 16.4668H16.748C17.7637 16.4668 18.61 16.2552 19.2871 15.832C19.9642 15.4023 20.472 14.8034 20.8105 14.0352C21.1556 13.2604 21.3281 12.3555 21.3281 11.3203V10.4512C21.3281 9.63737 21.2305 8.91471 21.0352 8.2832C20.8398 7.64518 20.5534 7.10807 20.1758 6.67188C19.7982 6.22917 19.3359 5.89388 18.7891 5.66602C18.2487 5.43815 17.627 5.32422 16.9238 5.32422H13.7207V3.78125H16.9238C17.8548 3.78125 18.7044 3.9375 19.4727 4.25C20.2409 4.55599 20.9017 5.00195 21.4551 5.58789C22.015 6.16732 22.4447 6.87044 22.7441 7.69727C23.0436 8.51758 23.1934 9.44206 23.1934 10.4707V11.3203C23.1934 12.349 23.0436 13.2767 22.7441 14.1035C22.4447 14.9238 22.0117 15.6237 21.4453 16.2031C20.8854 16.7826 20.2083 17.2285 19.4141 17.541C18.6263 17.847 17.7376 18 16.748 18ZM14.7852 3.78125V18H12.9004V3.78125H14.7852Z"  fill-opacity="0.9"/>
</svg>
