<svg width="26" height="24" viewBox="0 0 26 24" fill="currentColor" xmlns="http://www.w3.org/2000/svg">
<path d="M24.6398 11.8109L14.2898 1.46625L13.5961 0.772501C13.438 0.615474 13.2243 0.527344 13.0014 0.527344C12.7786 0.527344 12.5649 0.615474 12.4068 0.772501L1.36306 11.8109C1.20109 11.9722 1.07308 12.1644 0.98659 12.376C0.900101 12.5876 0.856882 12.8144 0.859486 13.043C0.8702 13.9859 1.65502 14.7386 2.59788 14.7386H3.73627V23.4627H22.2666V14.7386H23.4291C23.8872 14.7386 24.3184 14.5591 24.6425 14.235C24.8021 14.0759 24.9286 13.8868 25.0145 13.6785C25.1005 13.4702 25.1443 13.2469 25.1434 13.0216C25.1434 12.5663 24.9639 12.135 24.6398 11.8109ZM14.5014 21.5341H11.5014V16.0698H14.5014V21.5341ZM20.3381 12.81V21.5341H16.2157V15.427C16.2157 14.835 15.7363 14.3555 15.1443 14.3555H10.8586C10.2666 14.3555 9.78716 14.835 9.78716 15.427V21.5341H5.66484V12.81H3.09341L13.0041 2.90732L13.6229 3.52607L22.9122 12.81H20.3381Z" fill-opacity="0.9"/>
</svg>
