<?xml version="1.0" standalone="no"?><!DOCTYPE svg PUBLIC "-//W3C//DTD SVG 1.1//EN" "http://www.w3.org/Graphics/SVG/1.1/DTD/svg11.dtd"><svg t="1658901683713" class="icon" viewBox="0 0 1024 1024" version="1.1" xmlns="http://www.w3.org/2000/svg" p-id="3661" data-darkreader-inline-fill="" xmlns:xlink="http://www.w3.org/1999/xlink" width="200" height="200"><defs><style type="text/css"></style></defs><path d="M298.666667 0c-25.6 0-42.666667 17.066667-42.666667 42.666667v192c0 12.8-8.533333 21.333333-21.333333 21.333333H42.666667c-25.6 0-42.666667 17.066667-42.666667 42.666667s17.066667 42.666667 42.666667 42.666666h192C294.4 341.333333 341.333333 294.4 341.333333 234.666667V42.666667c0-25.6-17.066667-42.666667-42.666666-42.666667zM789.333333 341.333333H981.333333c25.6 0 42.666667-17.066667 42.666667-42.666666s-17.066667-42.666667-42.666667-42.666667h-192c-12.8 0-21.333333-8.533333-21.333333-21.333333V42.666667c0-25.6-17.066667-42.666667-42.666667-42.666667s-42.666667 17.066667-42.666666 42.666667v192C682.666667 294.4 729.6 341.333333 789.333333 341.333333zM234.666667 682.666667H42.666667c-25.6 0-42.666667 17.066667-42.666667 42.666666s17.066667 42.666667 42.666667 42.666667h192c12.8 0 21.333333 8.533333 21.333333 21.333333V981.333333c0 25.6 17.066667 42.666667 42.666667 42.666667s42.666667-17.066667 42.666666-42.666667v-192C341.333333 729.6 294.4 682.666667 234.666667 682.666667zM981.333333 682.666667h-192c-59.733333 0-106.666667 46.933333-106.666666 106.666666V981.333333c0 25.6 17.066667 42.666667 42.666666 42.666667s42.666667-17.066667 42.666667-42.666667v-192c0-12.8 8.533333-21.333333 21.333333-21.333333H981.333333c25.6 0 42.666667-17.066667 42.666667-42.666667s-17.066667-42.666667-42.666667-42.666666z" p-id="3662"></path></svg>