<svg width="24" height="24" viewBox="0 0 24 24" fill="currentColor" xmlns="http://www.w3.org/2000/svg">
<path d="M0.261914 3.49924L1.52603 2.23486L8.73265 9.44299L6.83647 11.3396L0.261914 4.76651C-0.0873048 4.41722 -0.0873048 3.84854 0.261914 3.49924Z" fill-opacity="0.9"/>
<path d="M3.76894 0L4.40157 0.632768L1.87305 3.16182L1.24042 2.52905L3.76894 0ZM5.9982 2.22681L6.63083 2.85958L4.10231 5.38863L3.46968 4.75586L5.9982 2.22681ZM8.16731 4.39933L8.79995 5.03209L6.27143 7.56114L5.63879 6.92838L8.16731 4.39933ZM10.3384 6.56976L10.9711 7.20253L8.44256 9.73158L7.80992 9.09881L10.3384 6.56976Z"  fill-opacity="0.9"/>
<path d="M12.7184 17.2227L14.6146 15.3262L18.1876 18.8999L21.7606 22.4737L20.4964 23.7381C20.1472 24.0874 19.5816 24.0874 19.2323 23.7381L12.7184 17.2227Z" fill-opacity="0.9"/>
<path d="M16.8518 13.0852L17.4844 13.718L14.9559 16.247L14.3232 15.6143L16.8518 13.0852ZM19.0229 15.2557L19.6555 15.8884L17.127 18.4175L16.4944 17.7847L19.0229 15.2557ZM21.1961 17.4282L21.8287 18.0609L19.3002 20.59L18.6676 19.9572L21.1961 17.4282ZM23.3672 19.5986L23.9998 20.2314L21.4713 22.7604L20.8387 22.1277L23.3672 19.5986Z"  fill-opacity="0.9"/>
<path d="M15.4051 3.49055L3.39309 15.5079C3.04387 15.8572 3.04387 16.423 3.39309 16.7723L7.18544 20.5655C7.53466 20.9148 8.10033 20.9148 8.44955 20.5655L20.4615 8.55096C20.8108 8.20167 20.8108 7.63587 20.4615 7.28658L16.6721 3.49055C16.3229 3.14126 15.7543 3.14126 15.4051 3.49055ZM7.82038 18.6689L5.28926 16.1401L16.0371 5.39001L18.5654 7.91877L7.82038 18.6689ZM18.5683 0.329596L17.3041 1.59398C16.9549 1.94327 16.9549 2.50907 17.3041 2.85836L21.0965 6.6515C21.4457 7.00079 22.0114 7.00079 22.3606 6.6515L23.6247 5.38712C23.9739 5.03783 23.9739 4.47203 23.6247 4.12274L19.8324 0.329596C19.4832 -0.0196962 18.9175 -0.0196962 18.5683 0.329596ZM21.414 5.70466L18.2508 2.54371L19.5149 1.27933L22.6752 4.44028L21.414 5.70466ZM2.09723 17.2573L0.0336586 23.3598C-0.0846719 23.7091 0.250117 24.044 0.599336 23.9256L6.70346 21.8645C7.01804 21.7577 7.1104 21.3593 6.87662 21.1255L2.83607 17.0841C2.6023 16.8474 2.20113 16.9426 2.09723 17.2573ZM2.96017 19.1019L4.85635 20.9985L1.64122 22.3177L2.96017 19.1019Z"  fill-opacity="0.9"/>
</svg>