<svg width="24" height="24" viewBox="0 0 24 24" fill="currentColor" xmlns="http://www.w3.org/2000/svg">
<path d="M24 11.1429L22.2429 11.1429C21.8357 6.15 17.85 2.16429 12.8571 1.75714L12.8571 0L11.1429 0L11.1429 1.75714C6.15 2.16429 2.16429 6.15 1.75714 11.1429L0 11.1429L0 12.8571L1.75714 12.8571C2.16429 17.85 6.15 21.8357 11.1429 22.2429L11.1429 24L12.8571 24L12.8571 22.2429C17.85 21.8357 21.8357 17.85 22.2429 12.8571L24 12.8571L24 11.1429ZM12 20.5714C7.26429 20.5714 3.42857 16.7357 3.42857 12C3.42857 7.26429 7.26429 3.42857 12 3.42857C16.7357 3.42857 20.5714 7.26429 20.5714 12C20.5714 16.7357 16.7357 20.5714 12 20.5714ZM15.4286 12C15.4286 13.8857 13.8857 15.4286 12 15.4286C10.1143 15.4286 8.57143 13.8857 8.57143 12C8.57143 10.1143 10.1143 8.57143 12 8.57143C13.8857 8.57143 15.4286 10.1143 15.4286 12Z"  fill-opacity="0.9"/>
</svg>
