<svg width="24" height="15" viewBox="0 0 24 15" fill="currentColor" xmlns="http://www.w3.org/2000/svg">
<path d="M10.498 13.5156V15H1.19141V13.7012L5.84961 8.51562C6.42253 7.8776 6.86523 7.33724 7.17773 6.89453C7.49674 6.44531 7.7181 6.04492 7.8418 5.69336C7.97201 5.33529 8.03711 4.9707 8.03711 4.59961C8.03711 4.13086 7.93945 3.70768 7.74414 3.33008C7.55534 2.94596 7.27539 2.63997 6.9043 2.41211C6.5332 2.18424 6.08398 2.07031 5.55664 2.07031C4.92513 2.07031 4.39779 2.19401 3.97461 2.44141C3.55794 2.68229 3.24544 3.02083 3.03711 3.45703C2.82878 3.89323 2.72461 4.39453 2.72461 4.96094H0.917969C0.917969 4.16016 1.09375 3.42773 1.44531 2.76367C1.79688 2.09961 2.31771 1.57227 3.00781 1.18164C3.69792 0.784505 4.54753 0.585938 5.55664 0.585938C6.45508 0.585938 7.22331 0.745443 7.86133 1.06445C8.49935 1.37695 8.98763 1.81966 9.32617 2.39258C9.67122 2.95898 9.84375 3.62305 9.84375 4.38477C9.84375 4.80143 9.77214 5.22461 9.62891 5.6543C9.49219 6.07747 9.30013 6.50065 9.05273 6.92383C8.81185 7.34701 8.52865 7.76367 8.20312 8.17383C7.88411 8.58398 7.54232 8.98763 7.17773 9.38477L3.36914 13.5156H10.498ZM16.748 15H13.7793L13.7988 13.4668H16.748C17.7637 13.4668 18.61 13.2552 19.2871 12.832C19.9642 12.4023 20.472 11.8034 20.8105 11.0352C21.1556 10.2604 21.3281 9.35547 21.3281 8.32031V7.45117C21.3281 6.63737 21.2305 5.91471 21.0352 5.2832C20.8398 4.64518 20.5534 4.10807 20.1758 3.67188C19.7982 3.22917 19.3359 2.89388 18.7891 2.66602C18.2487 2.43815 17.627 2.32422 16.9238 2.32422H13.7207V0.78125H16.9238C17.8548 0.78125 18.7044 0.9375 19.4727 1.25C20.2409 1.55599 20.9017 2.00195 21.4551 2.58789C22.015 3.16732 22.4447 3.87044 22.7441 4.69727C23.0436 5.51758 23.1934 6.44206 23.1934 7.4707V8.32031C23.1934 9.34896 23.0436 10.2767 22.7441 11.1035C22.4447 11.9238 22.0117 12.6237 21.4453 13.2031C20.8854 13.7826 20.2083 14.2285 19.4141 14.541C18.6263 14.847 17.7376 15 16.748 15ZM14.7852 0.78125V15H12.9004V0.78125H14.7852Z"  fill-opacity="0.9"/>
</svg>
