<svg width="21" height="24" viewBox="0 0 21 24" fill="none" xmlns="http://www.w3.org/2000/svg">
<path d="M20.0296 2.87097H18.0429V3.76977C18.0429 4.73256 17.2605 5.51501 16.2977 5.51501C15.3349 5.51501 14.5524 4.73256 14.5524 3.76977V2.87097H12.3418V3.76977C12.3418 4.73256 11.5593 5.51501 10.5965 5.51501C9.63374 5.51501 8.85129 4.73256 8.85129 3.76977V2.87097H6.64065V3.76977C6.64065 4.73256 5.8582 5.51501 4.89541 5.51501C3.93261 5.51501 3.15016 4.73256 3.15016 3.76977V2.87097H0.634105C0.285056 2.87097 0 3.15603 0 3.50508V23.3659C0 23.715 0.285056 24 0.634105 24H20.0296C20.3786 24 20.6637 23.715 20.6637 23.3659V3.50508C20.6637 3.15603 20.3786 2.87097 20.0296 2.87097ZM3.73773 7.8071C3.92971 7.61512 4.18858 7.5075 4.4591 7.5075H16.2104C16.7718 7.5075 17.2285 7.96417 17.2285 8.52556C17.2285 9.08695 16.7718 9.54362 16.2104 9.54362H4.4591C3.89771 9.54362 3.44104 9.08695 3.44104 8.52556C3.43813 8.25505 3.54575 7.99617 3.73773 7.8071ZM3.73773 13.0777C3.92971 12.8858 4.18858 12.7781 4.4591 12.7781H16.2104C16.7718 12.7781 17.2285 13.2348 17.2285 13.7962C17.2285 14.3576 16.7718 14.8143 16.2104 14.8143H4.4591C3.89771 14.8143 3.44104 14.3576 3.44104 13.7962C3.43813 13.5257 3.54575 13.2668 3.73773 13.0777ZM16.9638 20.4863C16.7718 20.6783 16.5129 20.7859 16.2424 20.7859H4.42128C3.8599 20.7859 3.40322 20.3292 3.40322 19.7678C3.40322 19.2064 3.8599 18.7498 4.42128 18.7498H16.2453C16.8067 18.7498 17.2634 19.2064 17.2634 19.7678C17.2634 20.0354 17.1557 20.2943 16.9638 20.4863Z" fill="url(#paint0_linear_656_625)"/>
<path d="M10.5005 4.93322C11.1434 4.93322 11.664 4.41256 11.664 3.76973V1.1635C11.664 0.520664 11.1434 0 10.5005 0C9.85772 0 9.33705 0.520664 9.33705 1.1635V3.76973C9.33705 4.41256 9.85772 4.93322 10.5005 4.93322ZM4.79942 4.93322C5.44225 4.93322 5.96292 4.41256 5.96292 3.76973V1.1635C5.96292 0.520664 5.44225 0 4.79942 0C4.15659 0 3.63593 0.520664 3.63593 1.1635V3.76973C3.63593 4.41256 4.15659 4.93322 4.79942 4.93322ZM16.2017 4.93322C16.8445 4.93322 17.3652 4.41256 17.3652 3.76973V1.1635C17.3652 0.520664 16.8445 0 16.2017 0C15.5588 0 15.0382 0.520664 15.0382 1.1635V3.76973C15.0382 4.41256 15.5588 4.93322 16.2017 4.93322Z" fill="url(#paint1_linear_656_625)"/>
<defs>
<linearGradient id="paint0_linear_656_625" x1="10.3318" y1="2.87097" x2="10.3318" y2="24" gradientUnits="userSpaceOnUse">
<stop stop-color="white"/>
<stop offset="1" stop-color="#66E1DF"/>
</linearGradient>
<linearGradient id="paint1_linear_656_625" x1="10.5005" y1="0" x2="10.5005" y2="4.93322" gradientUnits="userSpaceOnUse">
<stop stop-color="white"/>
<stop offset="1" stop-color="#66E1DF"/>
</linearGradient>
</defs>
</svg>
