<svg width="25" height="26" viewBox="0 0 25 26" fill="none" xmlns="http://www.w3.org/2000/svg">
<path d="M23.8988 9.58857C23.8858 9.57368 23.8723 9.5592 23.8584 9.54516L20.5754 6.26217C20.2142 5.90104 19.6233 5.90104 19.2622 6.26217C18.901 6.6233 18.901 7.21425 19.2622 7.57537L22.2857 10.5989V19.5C22.2857 20.0128 21.87 20.4286 21.3571 20.4286C20.8443 20.4286 20.4286 20.0128 20.4286 19.5V11.1429C20.4286 10.6321 20.0107 10.2143 19.5 10.2143H16.7143V3.71429C16.7143 1.67143 15.0429 0 13 0H3.71429C1.67143 0 0 1.67143 0 3.71429V26H16.7143V12.0714H18.5714V19.5C18.5714 21.0385 19.8186 22.2857 21.3571 22.2857C22.8956 22.2857 24.1429 21.0385 24.1429 19.5V10.2143C24.1429 9.97381 24.0502 9.75395 23.8988 9.58857ZM13 21.3571C13 21.8679 12.5821 22.2857 12.0714 22.2857H4.64286C4.13214 22.2857 3.71429 21.8679 3.71429 21.3571C3.71429 20.8464 4.13214 20.4286 4.64286 20.4286H12.0714C12.5821 20.4286 13 20.8464 13 21.3571ZM13 17.6429C13 18.1536 12.5821 18.5714 12.0714 18.5714H4.64286C4.13214 18.5714 3.71429 18.1536 3.71429 17.6429C3.71429 17.1321 4.13214 16.7143 4.64286 16.7143H12.0714C12.5821 16.7143 13 17.1321 13 17.6429ZM13 10.2433C13 10.754 12.5821 11.1719 12.0714 11.1719H4.64286C4.13214 11.1719 3.71429 10.754 3.71429 10.2433V4.64286C3.71429 4.13214 4.13214 3.71429 4.64286 3.71429H12.0714C12.5821 3.71429 13 4.13214 13 4.64286V10.2433Z" fill="url(#paint0_linear_656_637)"/>
<defs>
<linearGradient id="paint0_linear_656_637" x1="12.0714" y1="0" x2="12.0714" y2="26" gradientUnits="userSpaceOnUse">
<stop stop-color="white"/>
<stop offset="1" stop-color="#66E1DF"/>
</linearGradient>
</defs>
</svg>
