<svg width="28" height="28" viewBox="0 0 28 28" fill="none" xmlns="http://www.w3.org/2000/svg">
<path d="M15.4 2.8868V5.6C15.4 5.9713 15.2525 6.3274 14.99 6.58995C14.7274 6.8525 14.3713 7 14 7C13.6287 7 13.2726 6.8525 13.0101 6.58995C12.7475 6.3274 12.6 5.9713 12.6 5.6V1.4C12.6 1.21615 12.6362 1.0341 12.7066 0.864243C12.7769 0.694387 12.8801 0.540053 13.0101 0.410051C13.1401 0.280048 13.2944 0.176925 13.4643 0.106569C13.6341 0.0362121 13.8162 0 14 0C21.7322 0 28 6.2678 28 14C28 21.7322 21.7322 28 14 28C6.26781 28 1.17156e-05 21.7322 1.17156e-05 14C-0.00237085 12.1611 0.358672 10.3399 1.06239 8.64108C1.76611 6.9422 2.79863 5.39915 4.10061 4.1006C4.23105 3.96855 4.38645 3.86376 4.55777 3.79232C4.72908 3.72088 4.91289 3.68422 5.09851 3.68447C5.28412 3.68472 5.46783 3.72188 5.63895 3.79379C5.81007 3.86569 5.96518 3.97091 6.09527 4.10331C6.22535 4.23571 6.32781 4.39266 6.39667 4.56503C6.46554 4.73739 6.49945 4.92173 6.49642 5.10732C6.49339 5.29291 6.45349 5.47604 6.37903 5.64607C6.30457 5.81609 6.19705 5.96961 6.06271 6.0977C5.0264 7.13596 4.20486 8.36827 3.64503 9.72419C3.0852 11.0801 2.79805 12.5331 2.80001 14C2.80001 20.1859 7.81411 25.2 14 25.2C20.1859 25.2 25.2 20.1859 25.2 14C25.2 8.288 20.9251 3.5756 15.4 2.8868ZM12.9878 14.9681L10.0898 12.0701C9.82721 11.8075 9.67968 11.4513 9.67968 11.08C9.67968 10.7086 9.82721 10.3524 10.0898 10.0898C10.3524 9.8272 10.7086 9.67967 11.08 9.67967C11.4513 9.67967 11.8075 9.8272 12.0701 10.0898L14.9681 12.9878C15.4816 12.8958 16.0109 12.9701 16.4792 13.1999C16.9475 13.4296 17.3303 13.8028 17.5718 14.2652C17.8132 14.7275 17.9009 15.2549 17.8219 15.7705C17.7429 16.2861 17.5014 16.763 17.1325 17.1318C16.7637 17.5007 16.2868 17.7422 15.7712 17.8211C15.2556 17.9001 14.7282 17.8125 14.2659 17.571C13.8035 17.3296 13.4303 16.9468 13.2006 16.4785C12.9708 16.0102 12.8965 15.4808 12.9885 14.9674L12.9878 14.9681Z" fill="url(#paint0_linear_656_632)"/>
<defs>
<linearGradient id="paint0_linear_656_632" x1="14" y1="0" x2="14" y2="28" gradientUnits="userSpaceOnUse">
<stop stop-color="white"/>
<stop offset="1" stop-color="#66E1DF"/>
</linearGradient>
</defs>
</svg>
