<svg width="24" height="28" viewBox="0 0 24 28" fill="none" xmlns="http://www.w3.org/2000/svg">
<path d="M12 6C14.4695 6.00388 16.8496 6.92481 18.6785 8.58416C20.5074 10.2435 21.6549 12.523 21.8983 14.9805C22.1418 17.438 21.4638 19.8983 19.9959 21.8842C18.528 23.8701 16.3749 25.24 13.9541 25.7283C11.5334 26.2166 9.01755 25.7884 6.89464 24.5267C4.77173 23.2651 3.19307 21.26 2.46485 18.9003C1.73663 16.5406 1.91078 13.9945 2.9535 11.7559C3.99622 9.51736 5.8332 7.74584 8.10812 6.785C9.33939 6.26416 10.6631 5.99716 12 6ZM12 4C5.3725 4 0 9.3725 0 16C0 22.6275 5.3725 28 12 28C18.6275 28 24 22.6275 24 16C24 9.3725 18.6275 4 12 4ZM16 0H8V2H16V0Z" fill="url(#paint0_linear_656_614)"/>
<path d="M13 0H11V6H13V0ZM13 8H11V14.5859L13 16.5859V8ZM13 16.5859V19.4141L15.5859 22L17 20.5859L13 16.5859Z" fill="url(#paint1_linear_656_614)"/>
<path d="M11 14.5859V17.4141L13 19.4141V16.5859L11 14.5859Z" fill="url(#paint2_linear_656_614)"/>
<defs>
<linearGradient id="paint0_linear_656_614" x1="12" y1="0" x2="12" y2="28" gradientUnits="userSpaceOnUse">
<stop stop-color="white"/>
<stop offset="1" stop-color="#66E1DF"/>
</linearGradient>
<linearGradient id="paint1_linear_656_614" x1="14" y1="0" x2="14" y2="22" gradientUnits="userSpaceOnUse">
<stop stop-color="white"/>
<stop offset="1" stop-color="#66E1DF"/>
</linearGradient>
<linearGradient id="paint2_linear_656_614" x1="12" y1="14.5859" x2="12" y2="19.4141" gradientUnits="userSpaceOnUse">
<stop stop-color="white"/>
<stop offset="1" stop-color="#66E1DF"/>
</linearGradient>
</defs>
</svg>
