<svg width="24" height="24" viewBox="0 0 24 24" fill="none" xmlns="http://www.w3.org/2000/svg">
<path fill-rule="evenodd" clip-rule="evenodd" d="M12.1608 20.8674C12.3421 20.8674 12.5159 20.9396 12.6441 21.0681C12.7722 21.1966 12.8442 21.371 12.8442 21.5527V23.2621C12.8514 23.3563 12.8392 23.4509 12.8082 23.5401C12.7772 23.6292 12.7282 23.711 12.6642 23.7803C12.6002 23.8496 12.5227 23.9049 12.4364 23.9427C12.3501 23.9805 12.257 24 12.1628 24C12.0687 24 11.9755 23.9805 11.8892 23.9427C11.8029 23.9049 11.7254 23.8496 11.6614 23.7803C11.5974 23.711 11.5484 23.6292 11.5174 23.5401C11.4865 23.4509 11.4742 23.3563 11.4814 23.2621V21.5527C11.4814 21.3717 11.5529 21.1979 11.6802 21.0695C11.8075 20.9411 11.9803 20.8684 12.1608 20.8674ZM19.2924 18.3234L20.3497 19.3837C20.4263 19.4516 20.4883 19.5345 20.5318 19.6273C20.5752 19.7201 20.5992 19.8209 20.6023 19.9233C20.6054 20.0258 20.5875 20.1279 20.5497 20.2231C20.5119 20.3184 20.4551 20.4049 20.3827 20.4773C20.3102 20.5496 20.2237 20.6063 20.1286 20.6438C20.0335 20.6814 19.9317 20.6989 19.8295 20.6954C19.7273 20.692 19.6269 20.6675 19.5345 20.6236C19.4422 20.5796 19.3598 20.5172 19.2924 20.44L18.2391 19.3837C18.1134 19.2409 18.0467 19.0554 18.0524 18.8649C18.0581 18.6745 18.136 18.4934 18.2701 18.3584C18.4042 18.2234 18.5844 18.1446 18.7743 18.1382C18.9642 18.1317 19.1495 18.1979 19.2924 18.3234ZM5.57595 18.3234C5.71514 18.4646 5.79322 18.6551 5.79322 18.8536C5.79322 19.0521 5.71514 19.2426 5.57595 19.3837L4.51867 20.44C4.379 20.5801 4.18957 20.6588 3.99204 20.6588C3.79452 20.6588 3.60509 20.5801 3.46541 20.44C3.32574 20.2999 3.24726 20.11 3.24726 19.9119C3.24726 19.7138 3.32574 19.5238 3.46541 19.3837L4.51867 18.3234C4.6594 18.1838 4.84936 18.1056 5.04731 18.1056C5.24525 18.1056 5.43521 18.1838 5.57595 18.3234ZM12.008 4.78949C13.3915 4.78949 14.7439 5.20091 15.8942 5.97172C17.0445 6.74253 17.9411 7.83811 18.4705 9.11992C18.9999 10.4017 19.1385 11.8122 18.8686 13.173C18.5987 14.5337 17.9324 15.7837 16.9542 16.7647C15.9759 17.7458 14.7296 18.4139 13.3727 18.6845C12.0158 18.9552 10.6094 18.8163 9.33121 18.2853C8.05306 17.7544 6.9606 16.8553 6.19199 15.7017C5.42338 14.5481 5.01313 13.1918 5.01313 11.8044C5.01312 9.94673 5.74789 8.1649 7.05621 6.84981C8.36454 5.53472 10.1396 4.79377 11.992 4.78949H12.008ZM23.2642 11.119C23.3581 11.1118 23.4525 11.1241 23.5414 11.1552C23.6303 11.1862 23.7119 11.2354 23.781 11.2995C23.85 11.3637 23.9052 11.4415 23.9429 11.528C23.9805 11.6146 24 11.708 24 11.8024C24 11.8968 23.9805 11.9902 23.9429 12.0768C23.9052 12.1633 23.85 12.2411 23.781 12.3053C23.7119 12.3694 23.6303 12.4186 23.5414 12.4496C23.4525 12.4807 23.3581 12.493 23.2642 12.4857H21.5597C21.4658 12.493 21.3715 12.4807 21.2826 12.4496C21.1936 12.4186 21.1121 12.3694 21.043 12.3053C20.9739 12.2411 20.9188 12.1633 20.8811 12.0768C20.8434 11.9902 20.8239 11.8968 20.8239 11.8024C20.8239 11.708 20.8434 11.6146 20.8811 11.528C20.9188 11.4415 20.9739 11.3637 21.043 11.2995C21.1121 11.2354 21.1936 11.1862 21.2826 11.1552C21.3715 11.1241 21.4658 11.1118 21.5597 11.119H23.2642ZM2.45638 11.119C2.55026 11.1118 2.64462 11.1241 2.73354 11.1552C2.82246 11.1862 2.90403 11.2354 2.97311 11.2995C3.0422 11.3637 3.09731 11.4415 3.13501 11.528C3.1727 11.6146 3.19215 11.708 3.19215 11.8024C3.19215 11.8968 3.1727 11.9902 3.13501 12.0768C3.09731 12.1633 3.0422 12.2411 2.97311 12.3053C2.90403 12.3694 2.82246 12.4186 2.73354 12.4496C2.64462 12.4807 2.55026 12.493 2.45638 12.4857H0.735776C0.641893 12.493 0.547533 12.4807 0.458612 12.4496C0.369691 12.4186 0.288148 12.3694 0.219062 12.3053C0.149976 12.2411 0.0948408 12.1633 0.0571455 12.0768C0.0194503 11.9902 0 11.8968 0 11.8024C0 11.708 0.0194503 11.6146 0.0571455 11.528C0.0948408 11.4415 0.149976 11.3637 0.219062 11.2995C0.288148 11.2354 0.369691 11.1862 0.458612 11.1552C0.547533 11.1241 0.641893 11.1118 0.735776 11.119H2.45638ZM20.3497 3.50746C20.4886 3.64791 20.5666 3.83774 20.5666 4.03559C20.5666 4.23344 20.4886 4.42327 20.3497 4.56373L19.2924 5.62403C19.1495 5.74955 18.9642 5.8158 18.7743 5.80932C18.5844 5.80283 18.4042 5.7241 18.2701 5.58911C18.136 5.45412 18.0581 5.273 18.0524 5.08255C18.0467 4.8921 18.1134 4.7066 18.2391 4.56373L19.2924 3.50746C19.3616 3.43737 19.4439 3.38173 19.5346 3.34376C19.6254 3.30578 19.7227 3.28623 19.821 3.28623C19.9194 3.28623 20.0167 3.30578 20.1075 3.34376C20.1982 3.38173 20.2805 3.43737 20.3497 3.50746ZM4.51867 3.50746L5.57595 4.56373C5.64746 4.63288 5.70451 4.71562 5.74378 4.80713C5.78304 4.89865 5.80375 4.99709 5.80465 5.09671C5.80556 5.19633 5.78665 5.29513 5.74905 5.38735C5.71146 5.47956 5.65591 5.56334 5.58566 5.63378C5.51542 5.70423 5.43188 5.75993 5.33993 5.79764C5.24798 5.83534 5.14947 5.85429 5.05013 5.85338C4.95079 5.85248 4.85263 5.83173 4.76138 5.79235C4.67013 5.75297 4.58762 5.69575 4.51867 5.62403L3.46541 4.56373C3.32574 4.42366 3.24726 4.23368 3.24726 4.03559C3.24726 3.8375 3.32574 3.64753 3.46541 3.50746C3.60509 3.36739 3.79452 3.2887 3.99204 3.2887C4.18957 3.2887 4.379 3.36739 4.51867 3.50746ZM12.1568 0C12.338 0 12.5119 0.072208 12.64 0.200739C12.7682 0.32927 12.8402 0.503595 12.8402 0.685365V2.39475C12.8474 2.4889 12.8352 2.58353 12.8042 2.67271C12.7732 2.76188 12.7242 2.84368 12.6602 2.91296C12.5962 2.98224 12.5187 3.03752 12.4324 3.07532C12.3461 3.11313 12.253 3.13264 12.1588 3.13264C12.0646 3.13264 11.9715 3.11313 11.8852 3.07532C11.7989 3.03752 11.7214 2.98224 11.6574 2.91296C11.5934 2.84368 11.5444 2.76188 11.5134 2.67271C11.4824 2.58353 11.4702 2.4889 11.4774 2.39475V0.685365C11.4774 0.503595 11.5494 0.32927 11.6776 0.200739C11.8057 0.072208 11.9796 0 12.1608 0H12.1568Z" fill="#FFC97A"/>
</svg>
