<svg width="40" height="32" viewBox="0 0 40 32" fill="none" xmlns="http://www.w3.org/2000/svg">
<g id="&#230;&#146;&#173;&#230;&#148;&#190; 1" clip-path="url(#clip0_363_98186)">
<path id="Vector" d="M36.4204 6.92709e-07H3.58514C3.11436 -0.000290892 2.64814 0.0914739 2.21313 0.27005C1.77812 0.448626 1.38284 0.710512 1.04988 1.04074C0.716931 1.37097 0.452835 1.76306 0.272689 2.19461C0.0925444 2.62616 -0.000117528 3.0887 1.11873e-07 3.5558V28.4442C0.000117554 28.9112 0.0929497 29.3735 0.273194 29.8049C0.453439 30.2363 0.717566 30.6282 1.05049 30.9583C1.38341 31.2883 1.77861 31.5501 2.21351 31.7286C2.64841 31.9071 3.11449 31.9989 3.58514 31.9987H36.4204C36.891 31.9987 37.357 31.9067 37.7918 31.728C38.2266 31.5493 38.6216 31.2874 38.9544 30.9572C39.2871 30.627 39.5511 30.235 39.7311 29.8036C39.9112 29.3722 40.0038 28.9098 40.0037 28.4429V3.5558C40.0039 3.08885 39.9113 2.62645 39.7312 2.19502C39.5512 1.76359 39.2873 1.37157 38.9545 1.04137C38.6217 0.711164 38.2267 0.44924 37.7919 0.27056C37.357 0.0918794 36.891 -5.76181e-05 36.4204 6.92709e-07ZM12.3304 26.0472V5.95282L29.8692 15.9998L12.3304 26.0472Z" fill="white" fill-opacity="0.8"/>
</g>
<defs>
<clipPath id="clip0_363_98186">
<rect width="40" height="32" fill="white"/>
</clipPath>
</defs>
</svg>
