<svg width="13" height="22" viewBox="0 0 13 22" fill="none" xmlns="http://www.w3.org/2000/svg">
<g filter="url(#filter0_d_7_49)">
<path d="M8.48571 4.54415C8.48571 4.13462 8.32648 3.74186 8.04304 3.45227C7.75961 3.16269 7.37518 3 6.97434 3L5.8828 3C5.48196 3 5.09754 3.16269 4.8141 3.45227C4.53066 3.74186 4.37143 4.13462 4.37143 4.54416V17.3864L8.48571 17.3864V4.54415ZM7.85286 12.0436C7.85253 12.2264 7.78129 12.4016 7.65476 12.5309C7.52823 12.6602 7.35672 12.733 7.17778 12.7333H5.67936C5.50042 12.733 5.32891 12.6602 5.20238 12.5309C5.07585 12.4016 5.00462 12.2264 5.00429 12.0436C5.00462 11.8608 5.07585 11.6855 5.20238 11.5563C5.32891 11.427 5.50042 11.3542 5.67936 11.3539H7.17778C7.35672 11.3542 7.52823 11.427 7.65476 11.5563C7.78129 11.6855 7.85253 11.8608 7.85286 12.0436ZM7.17778 8.59241H5.67936C5.58834 8.59643 5.49746 8.58158 5.41221 8.54877C5.32695 8.51595 5.24908 8.46584 5.18328 8.40146C5.11748 8.33707 5.06512 8.25975 5.02935 8.17414C4.99357 8.08853 4.97513 7.99642 4.97513 7.90333C4.97513 7.81025 4.99357 7.71813 5.02935 7.63252C5.06512 7.54691 5.11748 7.46959 5.18328 7.40521C5.24908 7.34082 5.32695 7.29071 5.41221 7.2579C5.49746 7.22508 5.58834 7.21023 5.67936 7.21425H7.17778C7.2688 7.21023 7.35968 7.22508 7.44493 7.2579C7.53019 7.29071 7.60807 7.34082 7.67386 7.40521C7.73966 7.46959 7.79203 7.54691 7.8278 7.63252C7.86357 7.71813 7.88201 7.81025 7.88201 7.90333C7.88201 7.99642 7.86357 8.08853 7.8278 8.17414C7.79203 8.25975 7.73966 8.33707 7.67386 8.40146C7.60807 8.46584 7.53019 8.51595 7.44493 8.54877C7.35968 8.58158 7.2688 8.59643 7.17778 8.59241ZM8.48571 17.3864V17.4121L4.37143 17.4121V17.3864H3V19H9.85714V17.3864L8.48571 17.3864Z" fill="#358CF8"/>
</g>
<defs>
<filter id="filter0_d_7_49" x="0.25" y="0.25" width="12.3571" height="21.5" filterUnits="userSpaceOnUse" color-interpolation-filters="sRGB">
<feFlood flood-opacity="0" result="BackgroundImageFix"/>
<feColorMatrix in="SourceAlpha" type="matrix" values="0 0 0 0 0 0 0 0 0 0 0 0 0 0 0 0 0 0 127 0" result="hardAlpha"/>
<feOffset/>
<feGaussianBlur stdDeviation="1.375"/>
<feComposite in2="hardAlpha" operator="out"/>
<feColorMatrix type="matrix" values="0 0 0 0 0 0 0 0 0 0.145098 0 0 0 0 0.254902 0 0 0 0.12 0"/>
<feBlend mode="normal" in2="BackgroundImageFix" result="effect1_dropShadow_7_49"/>
<feBlend mode="normal" in="SourceGraphic" in2="effect1_dropShadow_7_49" result="shape"/>
</filter>
</defs>
</svg>
