<svg width="24" height="24" viewBox="0 0 24 24" fill="none" xmlns="http://www.w3.org/2000/svg">
<g id="B-&#230;&#151;&#182;&#233;&#151;&#180; 1">
<path id="Vector" d="M19.4368 4.57022C17.4493 2.58975 14.8102 1.49756 12.0047 1.49756C9.19927 1.49756 6.56021 2.58975 4.57505 4.57022C2.58989 6.55303 1.49536 9.1874 1.49536 11.9929C1.49536 14.796 2.58755 17.4327 4.57271 19.4155C6.55786 21.396 9.19458 22.4882 12.0024 22.4882C14.8102 22.4882 17.4493 21.396 19.4368 19.4132C23.5336 15.3233 23.5336 8.66475 19.4368 4.57022ZM16.9922 15.7757C16.861 16.003 16.6665 16.1647 16.4415 16.2304C16.3641 16.2538 16.2844 16.2632 16.2047 16.2632C16.0454 16.2632 15.886 16.2187 15.736 16.1343L12.1032 13.9382C11.9813 13.8702 11.8313 13.7882 11.7516 13.6827C11.2899 13.4155 11.0579 13.139 11.0579 12.8601V6.80147C11.0579 6.2624 11.4961 5.82647 12.0352 5.82647C12.5743 5.82647 13.0126 6.26475 13.0126 6.80147V12.3983L16.5516 14.4421C17.0532 14.7327 17.2501 15.3304 16.9922 15.7757Z" fill="#B2D3FC" fill-opacity="0.7"/>
</g>
</svg>
