<svg width="18" height="18" viewBox="0 0 18 18" fill="none" xmlns="http://www.w3.org/2000/svg">
<g id="&#231;&#148;&#181;&#230;&#177;&#160; 1">
<path id="Vector" d="M6.42857 2.14286C6.42857 1.83975 6.54898 1.54906 6.76331 1.33474C6.97763 1.12041 7.26832 1 7.57143 1H11C11.3031 1 11.5938 1.12041 11.8081 1.33474C12.0225 1.54906 12.1429 1.83975 12.1429 2.14286H13.8571C14.3118 2.14286 14.7478 2.32347 15.0693 2.64496C15.3908 2.96645 15.5714 3.40249 15.5714 3.85714V14.1429C15.5714 14.9006 15.2704 15.6273 14.7346 16.1632C14.1988 16.699 13.472 17 12.7143 17H5.85714C5.09938 17 4.37266 16.699 3.83684 16.1632C3.30102 15.6273 3 14.9006 3 14.1429V3.85714C3 3.40249 3.18061 2.96645 3.5021 2.64496C3.82359 2.32347 4.25963 2.14286 4.71429 2.14286H6.42857ZM14.4286 3.85714C14.4286 3.70559 14.3684 3.56025 14.2612 3.45308C14.154 3.34592 14.0087 3.28571 13.8571 3.28571H11.5714C11.4964 3.28571 11.4221 3.27093 11.3528 3.24222C11.2834 3.2135 11.2204 3.17141 11.1674 3.11835C11.1143 3.06528 11.0722 3.00229 11.0435 2.93296C11.0148 2.86363 11 2.78933 11 2.71429V2.14286H7.57143V2.71429C7.57143 2.78933 7.55665 2.86363 7.52793 2.93296C7.49922 3.00229 7.45712 3.06528 7.40406 3.11835C7.351 3.17141 7.28801 3.2135 7.21868 3.24222C7.14935 3.27093 7.07504 3.28571 7 3.28571H4.71429C4.56273 3.28571 4.41739 3.34592 4.31022 3.45308C4.20306 3.56025 4.14286 3.70559 4.14286 3.85714V4.42857H14.4286V3.85714ZM14.4286 5.57143H4.14286V13.5714H14.4286V5.57143ZM5.85714 15.8571H12.7143C13.0689 15.8572 13.4149 15.7474 13.7045 15.5427C13.9941 15.338 14.2131 15.0486 14.3314 14.7143H4.24C4.35829 15.0486 4.57733 15.338 4.86694 15.5427C5.15656 15.7474 5.5025 15.8572 5.85714 15.8571ZM10.3029 7.07143C10.3526 7.01322 10.3901 6.94562 10.4131 6.87264C10.4362 6.79966 10.4444 6.72278 10.4372 6.64658C10.43 6.57037 10.4075 6.4964 10.3712 6.42903C10.3349 6.36167 10.2853 6.30229 10.2256 6.25443C10.1659 6.20657 10.0971 6.17119 10.0235 6.15041C9.94981 6.12962 9.87272 6.12385 9.79678 6.13343C9.72084 6.14301 9.6476 6.16775 9.5814 6.20618C9.5152 6.24461 9.4574 6.29595 9.41143 6.35714L7.12571 9.21429C7.05845 9.2983 7.01628 9.39961 7.00405 9.50654C6.99183 9.61347 7.01006 9.72168 7.05663 9.8187C7.1032 9.91573 7.17623 9.99764 7.26731 10.055C7.35838 10.1123 7.4638 10.1428 7.57143 10.1429H9.81143L8.26857 12.0714C8.21887 12.1296 8.18136 12.1972 8.15829 12.2702C8.13521 12.3432 8.12703 12.4201 8.13424 12.4963C8.14144 12.5725 8.16388 12.6465 8.20023 12.7138C8.23657 12.7812 8.28608 12.8406 8.34581 12.8884C8.40554 12.9363 8.47428 12.9717 8.54795 12.9925C8.62162 13.0132 8.69871 13.019 8.77465 13.0094C8.85059 12.9999 8.92383 12.9751 8.99003 12.9367C9.05623 12.8983 9.11403 12.8469 9.16 12.7857L11.4457 9.92857C11.513 9.84456 11.5552 9.74325 11.5674 9.63632C11.5796 9.52939 11.5614 9.42118 11.5148 9.32415C11.4682 9.22713 11.3952 9.14522 11.3041 9.08788C11.213 9.03053 11.1076 9.00007 11 9H8.76L10.3029 7.07143Z" fill="#B2D3FC" fill-opacity="0.7"/>
</g>
</svg>
