<svg width="24" height="24" viewBox="0 0 24 24" fill="none" xmlns="http://www.w3.org/2000/svg">
<path d="M12 21C7.02975 21 3 16.9703 3 12C3 7.02975 7.02975 3 12 3C16.9703 3 21 7.02975 21 12C21 16.9703 16.9703 21 12 21ZM12 19.5C16.1422 19.5 19.5 16.1422 19.5 12C19.5 7.85775 16.1422 4.5 12 4.5C7.85775 4.5 4.5 7.85775 4.5 12C4.5 16.1422 7.85775 19.5 12 19.5ZM11.25 11.25C11.25 11.0511 11.329 10.8603 11.4697 10.7197C11.6103 10.579 11.8011 10.5 12 10.5C12.1989 10.5 12.3897 10.579 12.5303 10.7197C12.671 10.8603 12.75 11.0511 12.75 11.25V16.5C12.75 16.6989 12.671 16.8897 12.5303 17.0303C12.3897 17.171 12.1989 17.25 12 17.25C11.8011 17.25 11.6103 17.171 11.4697 17.0303C11.329 16.8897 11.25 16.6989 11.25 16.5V11.25ZM11.925 8.85C11.6465 8.85 11.3795 8.73938 11.1825 8.54246C10.9856 8.34555 10.875 8.07848 10.875 7.8C10.875 7.52152 10.9856 7.25445 11.1825 7.05754C11.3795 6.86062 11.6465 6.75 11.925 6.75C12.2035 6.75 12.4705 6.86062 12.6675 7.05754C12.8644 7.25445 12.975 7.52152 12.975 7.8C12.975 8.07848 12.8644 8.34555 12.6675 8.54246C12.4705 8.73938 12.2035 8.85 11.925 8.85Z" fill="#B2D3FC" fill-opacity="0.7" stroke="#82A1C6" stroke-width="0.4"/>
</svg>
