<svg width="18" height="17" viewBox="0 0 18 17" fill="none" xmlns="http://www.w3.org/2000/svg">
<path d="M5.44444 2.33333C5.44444 1.84241 5.84241 1.44444 6.33333 1.44444H16.1111C16.602 1.44444 17 1.84241 17 2.33333C17 2.82425 16.602 3.22223 16.1111 3.22223H6.33333C5.84241 3.22223 5.44444 2.82425 5.44444 2.33333ZM1 2.33333C1 1.59696 1.59696 1 2.33333 1C3.06971 1 3.66667 1.59696 3.66667 2.33333C3.66667 3.06971 3.06971 3.66667 2.33333 3.66667C1.59696 3.66667 1 3.06971 1 2.33333ZM1 8.5556C1 7.8192 1.59696 7.22227 2.33333 7.22227C3.06971 7.22227 3.66667 7.8192 3.66667 8.5556C3.66667 9.292 3.06971 9.88893 2.33333 9.88893C1.59696 9.88893 1 9.292 1 8.5556ZM1 14.7777C1 14.0413 1.59696 13.4444 2.33333 13.4444C3.06971 13.4444 3.66667 14.0413 3.66667 14.7777C3.66667 15.5141 3.06971 16.1111 2.33333 16.1111C1.59696 16.1111 1 15.5141 1 14.7777ZM5.44444 8.5556C5.44444 8.06467 5.84241 7.66667 6.33333 7.66667H16.1111C16.602 7.66667 17 8.06467 17 8.5556C17 9.04653 16.602 9.4444 16.1111 9.4444H6.33333C5.84241 9.4444 5.44444 9.04653 5.44444 8.5556ZM5.44444 14.7777C5.44444 14.2868 5.84241 13.8889 6.33333 13.8889H16.1111C16.602 13.8889 17 14.2868 17 14.7777C17 15.2687 16.602 15.6667 16.1111 15.6667H6.33333C5.84241 15.6667 5.44444 15.2687 5.44444 14.7777Z" fill="white" fill-opacity="0.86" stroke="#DDE1E4" stroke-width="0.2"/>
</svg>
