<svg width="18" height="18" viewBox="0 0 18 18" fill="none" xmlns="http://www.w3.org/2000/svg">
<g id="&#232;&#167;&#146;&#229;&#186;&#166; 1">
<path id="Union" fill-rule="evenodd" clip-rule="evenodd" d="M1.57201 16.3994H16.4279C16.5797 16.3994 16.7252 16.3391 16.8324 16.2319C16.9397 16.1246 17 15.9791 17 15.8274C17 15.6756 16.9397 15.5301 16.8324 15.4228C16.7252 15.3156 16.5797 15.2553 16.4279 15.2553H10.026C10.1158 14.6957 10.1273 14.1253 10.0592 13.5604C9.96338 12.7654 9.71177 11.9971 9.31876 11.2994C8.92575 10.6017 8.39907 9.98834 7.76882 9.49437C7.23727 9.07775 6.64085 8.75296 6.00432 8.53251L9.48069 1.83597C9.55067 1.70134 9.56431 1.54443 9.51859 1.39975C9.47288 1.25506 9.37156 1.13447 9.23693 1.06449C9.1023 0.994503 8.94539 0.980869 8.80071 1.02658C8.65602 1.0723 8.53543 1.17361 8.46545 1.30824L1.0643 15.5638C1.01905 15.651 0.997019 15.7484 1.00032 15.8466C1.00363 15.9448 1.03216 16.0405 1.08317 16.1244C1.13419 16.2084 1.20596 16.2778 1.29158 16.3259C1.3772 16.3741 1.47378 16.3994 1.57201 16.3994ZM5.4701 9.56157L2.51432 15.2553H8.86361C9.35436 12.7875 7.89794 10.3123 5.4701 9.56157Z" fill="#B2D3FC" fill-opacity="0.7"/>
</g>
</svg>
