<svg width="16" height="16" viewBox="0 0 16 16" fill="none" xmlns="http://www.w3.org/2000/svg">
<g id="&#228;&#189;&#141;&#231;&#189;&#174;(1) 1">
<path id="Vector" d="M13.6318 5.69038C13.6318 5.80195 13.629 5.90795 13.6234 6.00837C13.6179 6.10879 13.6095 6.21478 13.5983 6.32636C13.4979 7.25244 13.2943 8.14226 12.9874 8.99582C12.6806 9.84937 12.2929 10.6695 11.8243 11.4561C11.3556 12.2427 10.8145 12.9986 10.2008 13.7239C9.58717 14.4491 8.92329 15.1464 8.20921 15.8159C8.10879 15.9386 7.98047 16 7.82427 16C7.6569 16 7.52301 15.9386 7.4226 15.8159C6.70851 15.1464 6.04184 14.4435 5.42259 13.7071C4.80335 12.9707 4.25662 12.2008 3.78243 11.3975C3.30823 10.5941 2.91771 9.76011 2.61088 8.8954C2.30404 8.03068 2.106 7.12971 2.01674 6.19247C2.01674 6.10321 2.01395 6.01953 2.00837 5.94142C2.00279 5.86332 2 5.77964 2 5.69038C2 4.90935 2.15342 4.17294 2.46025 3.48117C2.76709 2.7894 3.18271 2.18689 3.70711 1.67364C4.23152 1.16039 4.84798 0.753138 5.55649 0.451883C6.26499 0.150628 7.02092 0 7.82427 0C8.62762 0 9.38075 0.150628 10.0837 0.451883C10.7866 0.753138 11.4003 1.16039 11.9247 1.67364C12.4491 2.18689 12.8647 2.7894 13.1715 3.48117C13.4784 4.17294 13.6318 4.90935 13.6318 5.69038ZM7.82427 8.30126C8.19247 8.30126 8.53835 8.23152 8.86193 8.09205C9.1855 7.95258 9.46723 7.76569 9.70711 7.53138C9.947 7.29707 10.1367 7.02092 10.2762 6.70293C10.4156 6.38494 10.4854 6.04742 10.4854 5.69038C10.4854 5.33333 10.4156 4.99582 10.2762 4.67782C10.1367 4.35983 9.947 4.08368 9.70711 3.84937C9.46723 3.61506 9.1855 3.42817 8.86193 3.2887C8.53835 3.14923 8.19247 3.0795 7.82427 3.0795C7.45607 3.0795 7.11018 3.14923 6.78661 3.2887C6.46304 3.42817 6.17852 3.61506 5.93305 3.84937C5.68759 4.08368 5.49512 4.35983 5.35565 4.67782C5.21618 4.99582 5.14644 5.33333 5.14644 5.69038C5.14644 6.04742 5.21618 6.38494 5.35565 6.70293C5.49512 7.02092 5.68759 7.29707 5.93305 7.53138C6.17852 7.76569 6.46304 7.95258 6.78661 8.09205C7.11018 8.23152 7.45607 8.30126 7.82427 8.30126Z" fill="#B2D3FC" fill-opacity="0.7"/>
</g>
</svg>
