<svg width="18" height="18" viewBox="0 0 18 18" fill="none" xmlns="http://www.w3.org/2000/svg">
<g id="&#230;&#185;&#191;&#229;&#186;&#166;(1) 1">
<g id="Group 48097680">
<path id="Vector" d="M9.26207 1C7.76322 1 3 6.70115 3 10.5816C3 14.1126 5.81379 17 9.26207 17C12.7103 17 15.5241 14.1126 15.5241 10.5816C15.5241 6.70115 10.7609 1 9.26207 1ZM14.3287 10.5816C14.3287 13.4506 12.0575 15.7862 9.26207 15.7862C6.46667 15.7862 4.1954 13.4506 4.1954 10.5816C4.1954 7.06897 8.4069 2.61839 9.26207 2.23218C10.1172 2.61839 14.3287 7.06897 14.3287 10.5816Z" fill="#B2D3FC" fill-opacity="0.7"/>
<path id="Vector_2" d="M7.18391 10.7659C7.10115 10.5453 6.89885 10.3797 6.66897 10.343C6.43908 10.3062 6.19081 10.3981 6.04368 10.582C5.89655 10.7659 5.85977 11.0234 5.94253 11.2441C6.20959 11.9514 6.62522 12.5931 7.16137 13.1261C7.69753 13.6591 8.34175 14.0709 9.05058 14.3338C9.14292 14.3662 9.24126 14.378 9.33867 14.3684C9.43608 14.3587 9.53018 14.3278 9.61435 14.2778C9.69852 14.2279 9.7707 14.16 9.82581 14.0791C9.88093 13.9982 9.91763 13.9062 9.93333 13.8096C9.96195 13.6543 9.93413 13.4939 9.85488 13.3573C9.77563 13.2208 9.65018 13.117 9.50115 13.0648C8.43448 12.6786 7.5977 11.8326 7.18391 10.7659Z" fill="#B2D3FC" fill-opacity="0.7"/>
</g>
</g>
</svg>
