<svg width="18" height="18" viewBox="0 0 18 18" fill="none" xmlns="http://www.w3.org/2000/svg">
<g id="&#230;&#184;&#169;&#229;&#186;&#166;(1) 1">
<g id="Group 48097681">
<path id="Vector" d="M13.5999 11C13.2999 10.5 12.7999 10 12.1999 9.7V3C12.1999 1.9 11.3999 1 10.2999 1C9.1999 1 8.3999 1.9 8.3999 3V9.8C7.7999 10 7.3999 10.5 6.9999 11C6.5999 11.6 6.3999 12.3 6.3999 13.1C6.3999 14.1 6.7999 15.1 7.4999 15.8C8.1999 16.5 9.2999 17 10.2999 17C11.2999 17 12.2999 16.6 12.9999 15.9C13.6999 15.2 14.0999 14.2 14.0999 13.2C14.1999 12.4 13.9999 11.7 13.5999 11ZM10.2999 16.3C8.4999 16.3 7.0999 14.8 7.0999 13.1C7.0999 11.9 7.7999 10.8 8.8999 10.2L9.0999 10.1V3C9.0999 2.3 9.6999 1.7 10.3999 1.7C11.0999 1.7 11.6999 2.3 11.6999 3V10.2L11.8999 10.3C12.9999 10.9 13.6999 12 13.6999 13.2C13.5999 14.9 12.0999 16.3 10.2999 16.3Z" fill="#B2D3FC" fill-opacity="0.7" stroke="#81A0C9" stroke-width="0.4"/>
<path id="Vector_2" d="M10.9 11.4002V5.1002C10.9 4.8002 10.6 4.5002 10.3 4.5002C10 4.5002 9.7 4.8002 9.7 5.1002V11.4002C9 11.6002 8.6 12.3002 8.6 13.0002C8.6 13.9002 9.4 14.7002 10.3 14.7002C11.2 14.7002 12 13.9002 12 13.0002C12 12.3002 11.6 11.6002 10.9 11.4002ZM6.7 3.9002H3.6C3.2 3.9002 3 3.7002 3 3.3002C3 3.0002 3.2 2.7002 3.6 2.7002H6.8C7.1 2.7002 7.4 3.0002 7.4 3.3002C7.3 3.7002 7.1 3.9002 6.7 3.9002ZM6.7 5.8002H4.7C4.4 5.8002 4.1 5.5002 4.1 5.2002C4.1 4.9002 4.4 4.6002 4.7 4.6002H6.7C7 4.6002 7.3 4.9002 7.3 5.2002C7.3 5.6002 7.1 5.8002 6.7 5.8002ZM6.7 7.8002H6.1C5.8 7.8002 5.5 7.5002 5.5 7.2002C5.5 6.9002 5.8 6.6002 6.1 6.6002H6.8C7.1 6.6002 7.4 6.9002 7.4 7.2002C7.3 7.5002 7.1 7.8002 6.7 7.8002Z" fill="#B2D3FC" fill-opacity="0.7"/>
</g>
</g>
</svg>
