<svg width="18" height="18" viewBox="0 0 18 18" fill="none" xmlns="http://www.w3.org/2000/svg">
<g id="&#230;&#140;&#175;&#229;&#138;&#168; 1">
<path id="Vector" d="M5.64119 11.7495C5.64119 11.9768 5.73148 12.1948 5.8922 12.3555C6.05292 12.5162 6.27089 12.6065 6.49818 12.6065C6.72547 12.6065 6.94345 12.5162 7.10416 12.3555C7.26488 12.1948 7.35517 11.9768 7.35517 11.7495C7.35517 11.5222 7.26488 11.3042 7.10416 11.1435C6.94345 10.9828 6.72547 10.8925 6.49818 10.8925C6.27089 10.8925 6.05292 10.9828 5.8922 11.1435C5.73148 11.3042 5.64119 11.5222 5.64119 11.7495ZM16.6541 6.22365L11.7749 1.34453C11.666 1.23532 11.5367 1.14867 11.3942 1.08955C11.2518 1.03043 11.099 1 10.9448 1C10.7906 1 10.6379 1.03043 10.4954 1.08955C10.353 1.14867 10.2236 1.23532 10.1147 1.34453L1.34368 10.1167C1.12361 10.3371 1 10.6359 1 10.9474C1 11.2589 1.12361 11.5576 1.34368 11.7781L6.2228 16.6561C6.44105 16.8754 6.737 16.9989 7.05237 16.9989C7.3666 16.9989 7.6614 16.8777 7.88193 16.6561L16.6541 7.88392C17.1111 7.42572 17.1111 6.67957 16.6529 6.22251L16.6541 6.22365ZM7.05351 15.574L2.42577 10.9462L10.9465 2.42662L15.5708 7.05436L7.05237 15.5728L7.05351 15.574ZM2.58574 6.53217C2.6123 6.55861 2.64825 6.57346 2.68572 6.57346C2.7232 6.57346 2.75915 6.55861 2.78571 6.53217L6.53018 2.78656C6.55662 2.76 6.57147 2.72405 6.57147 2.68657C6.57147 2.6491 6.55662 2.61315 6.53018 2.58659L5.84458 1.901C5.81803 1.87456 5.78208 1.85971 5.7446 1.85971C5.70713 1.85971 5.67118 1.87456 5.64462 1.901L1.89787 5.64318C1.87142 5.66974 1.85657 5.70569 1.85657 5.74317C1.85657 5.78064 1.87142 5.81659 1.89787 5.84315L2.5846 6.53217H2.58574ZM15.4166 11.4707C15.39 11.4443 15.3541 11.4294 15.3166 11.4294C15.2791 11.4294 15.2432 11.4443 15.2166 11.4707L11.4687 15.2163C11.4423 15.2429 11.4274 15.2788 11.4274 15.3163C11.4274 15.3538 11.4423 15.3897 11.4687 15.4163L12.1543 16.1019C12.1809 16.1283 12.2168 16.1432 12.2543 16.1432C12.2918 16.1432 12.3277 16.1283 12.3543 16.1019L16.0999 12.3574C16.1263 12.3309 16.1412 12.2949 16.1412 12.2574C16.1412 12.2199 16.1263 12.184 16.0999 12.1574L15.4166 11.4707Z" fill="#B2D3FC" fill-opacity="0.7"/>
</g>
</svg>
