<svg width="40" height="40" viewBox="0 0 40 40" fill="none" xmlns="http://www.w3.org/2000/svg">
<g filter="url(#filter0_d_455_7458)">
<path d="M12.7684 28.4856V21.6746C12.7684 17.6004 16.0721 14.2961 20.1504 14.2961C24.2287 14.2961 27.5324 17.6004 27.5324 21.6746V28.4856H30.0524C30.5757 28.4856 31 28.9099 31 29.4332C31 29.9565 30.5757 30.3808 30.0524 30.3808H9.94759C9.42424 30.3808 9 29.9565 9 29.4332C9 28.9099 9.42424 28.4856 9.94759 28.4856H12.7684ZM20.6848 17.2695L17.0435 23.2641H19.9557L19.2266 27.76L22.8678 21.7654H19.9556L20.6848 17.2695ZM26.2689 10.6846C26.6108 10.8835 26.7276 11.3226 26.5307 11.6643L25.2218 13.9392L23.9842 13.2234L25.2932 10.9484C25.4879 10.6068 25.9249 10.49 26.2646 10.6846H26.2689ZM20.1482 9C20.5766 9 20.9228 9.32222 20.9228 9.7223V12.3H19.3737V9.72015C19.3737 9.32224 19.7198 9 20.1482 9ZM14.0319 10.6846C14.3716 10.4878 14.8086 10.6046 15.0055 10.9441C15.0055 10.9441 15.0055 10.9463 15.0077 10.9463L16.3166 13.2213L15.0791 13.9371L13.7701 11.6621C13.5733 11.3204 13.6901 10.8835 14.0319 10.6846ZM9.55333 15.1805C9.74804 14.8388 10.1851 14.7199 10.5269 14.9167C10.5269 14.9167 10.5291 14.9167 10.5291 14.9189L12.7965 16.2337L12.0825 17.475L9.8151 16.158C9.47328 15.9612 9.35642 15.5222 9.55333 15.1805ZM30.7474 15.1805C30.9444 15.5222 30.8275 15.9612 30.4857 16.1601L28.2182 17.4728L27.5043 16.2315L29.7717 14.9167C30.1114 14.7199 30.5484 14.8367 30.7453 15.1762C30.7453 15.1783 30.7474 15.1784 30.7474 15.1805Z" fill="#DE1B1B"/>
</g>
<defs>
<filter id="filter0_d_455_7458" x="-7" y="-7" width="54" height="53.3808" filterUnits="userSpaceOnUse" color-interpolation-filters="sRGB">
<feFlood flood-opacity="0" result="BackgroundImageFix"/>
<feColorMatrix in="SourceAlpha" type="matrix" values="0 0 0 0 0 0 0 0 0 0 0 0 0 0 0 0 0 0 127 0" result="hardAlpha"/>
<feOffset/>
<feGaussianBlur stdDeviation="8"/>
<feComposite in2="hardAlpha" operator="out"/>
<feColorMatrix type="matrix" values="0 0 0 0 0.870588 0 0 0 0 0.105882 0 0 0 0 0.105882 0 0 0 1 0"/>
<feBlend mode="normal" in2="BackgroundImageFix" result="effect1_dropShadow_455_7458"/>
<feBlend mode="normal" in="SourceGraphic" in2="effect1_dropShadow_455_7458" result="shape"/>
</filter>
</defs>
</svg>
