<svg width="22" height="22" viewBox="0 0 22 22" fill="none" xmlns="http://www.w3.org/2000/svg">
<path d="M3.76837 19.4856V12.6746C3.76837 8.60038 7.07209 5.29605 11.1504 5.29605C15.2287 5.29605 18.5324 8.6004 18.5324 12.6746V19.4856H21.0524C21.5757 19.4856 22 19.9099 22 20.4332C22 20.9565 21.5757 21.3808 21.0524 21.3808H0.947589C0.42424 21.3808 0 20.9565 0 20.4332C0 19.9099 0.42424 19.4856 0.947589 19.4856H3.76839H3.76837ZM11.6848 8.2695L8.04352 14.2641H10.9557L10.2266 18.76L13.8678 12.7654H10.9556L11.6848 8.2695H11.6848ZM17.2689 1.68462C17.6108 1.88355 17.7276 2.32256 17.5307 2.66425L16.2218 4.93924L14.9842 4.22343L16.2932 1.94844C16.4879 1.60677 16.9249 1.49 17.2646 1.68462H17.2689ZM11.1482 0C11.5766 0 11.9228 0.322223 11.9228 0.7223V3.30002H10.3737V0.720146C10.3737 0.322245 10.7198 0 11.1482 0ZM5.03191 1.68462C5.3716 1.48782 5.80861 1.60459 6.00552 1.94413C6.00552 1.94413 6.00552 1.94628 6.00767 1.94628L7.31664 4.22127L6.07906 4.93707L4.7701 2.66208C4.57326 2.32039 4.69007 1.88355 5.03189 1.68462H5.03191ZM0.553327 6.18054C0.748035 5.83883 1.18507 5.71988 1.52693 5.91668C1.52693 5.91668 1.52909 5.91668 1.52909 5.91886L3.79647 7.23368L3.08251 8.47498L0.815099 7.15796C0.473278 6.96118 0.356423 6.52217 0.553327 6.1805V6.18054ZM21.7474 6.18054C21.9443 6.52219 21.8275 6.9612 21.4857 7.16013L19.2182 8.4728L18.5043 7.23152L20.7717 5.91668C21.1114 5.71991 21.5484 5.83667 21.7453 6.17619C21.7453 6.17834 21.7474 6.17834 21.7474 6.1805L21.7474 6.18054Z" fill="currentColor"/>
</svg>
