<svg width="18" height="18" viewBox="0 0 18 18" fill="none" xmlns="http://www.w3.org/2000/svg">
<path d="M16.4202 14.7916V3.17572C17.1402 3.02684 17.6833 2.37874 17.6833 1.60422C17.6833 0.719974 16.9754 0 16.1045 0C15.3416 0 14.7043 0.551852 14.5578 1.28338H3.12553C3.05243 0.921301 2.85865 0.595923 2.5769 0.362129C2.29514 0.128335 1.94265 0.000433906 1.57887 0C1.16028 0.000509455 0.758981 0.169689 0.462994 0.470428C0.167007 0.771168 0.000501404 1.17891 0 1.60422C0 2.37874 0.543131 3.02684 1.2631 3.17572V14.7909C0.543131 14.9398 0 15.5879 0 16.3624C0.000334256 16.7878 0.166766 17.1957 0.462771 17.4966C0.758776 17.7975 1.16017 17.9668 1.57887 17.9673C2.34115 17.9673 2.97901 17.4154 3.12553 16.6839H14.5572C14.7037 17.4154 15.3416 17.9673 16.1038 17.9673C16.3202 18.0124 16.5434 18.0108 16.7591 17.9628C16.9748 17.9148 17.1782 17.8213 17.3561 17.6884C17.5341 17.5556 17.6826 17.3863 17.7921 17.1914C17.9016 16.9966 17.9697 16.7806 17.992 16.5574C18.0142 16.3341 17.9901 16.1086 17.9212 15.8955C17.8524 15.6823 17.7403 15.4861 17.5921 15.3197C17.444 15.1533 17.2632 15.0203 17.0613 14.9294C16.8595 14.8384 16.6411 14.7914 16.4202 14.7916ZM2.52619 15.088V2.87926C2.6424 2.79006 2.74597 2.68482 2.83376 2.56675H14.849C14.9374 2.68482 15.0403 2.79006 15.1565 2.87926V15.0874C15.0397 15.1772 14.9367 15.2818 14.8483 15.4005H2.83376C2.7461 15.2823 2.64257 15.1771 2.52619 15.088Z" fill="currentcolor" fill-opacity="0.85"/>
</svg>
